<svg xmlns="http://www.w3.org/2000/svg" xmlns:xlink="http://www.w3.org/1999/xlink" width="735.889" height="548.396" viewBox="0 0 735.889 548.396">
  <defs>
    <clipPath id="clip-path">
      <path id="Path_1168" data-name="Path 1168" d="M-983.618,256.864l3.5,7.638s21.532-10.082,26.2-15.954c1.192-1.516,2.841-3.93,4.621-6.682,2.929-4.548,6.24-10.023,8.536-13.864,1.707-2.87,2.855-4.827,2.855-4.827l-12.186-19.221c-2.664,2.046-10.818,34.9-12.275,36.662S-983.618,256.864-983.618,256.864Z" transform="translate(983.618 -203.954)" fill="#467cdb"/>
    </clipPath>
    <clipPath id="clip-path-2">
      <path id="Path_1193" data-name="Path 1193" d="M-904.612,272.683s8.563-52.172-6.154-75.564c0,0-29.393-1.826-50.071,10.11,0,0,8.544,23.228,9.817,65.454Z" transform="translate(960.837 -197.019)" fill="#467cdb"/>
    </clipPath>
  </defs>
  <g id="Group_371" data-name="Group 371" transform="translate(1152.902 -54.243)">
    <g id="Group_348" data-name="Group 348" transform="translate(-956.164 157.325)">
      <g id="Group_345" data-name="Group 345" transform="translate(0 0)">
        <rect id="Rectangle_254" data-name="Rectangle 254" width="149.713" height="301.032" transform="translate(3.455 4.085)" fill="#fafafa"/>
        <rect id="Rectangle_255" data-name="Rectangle 255" width="156.623" height="14.772" fill="#f0f0f0"/>
        <g id="Group_344" data-name="Group 344" transform="translate(0 16.409)">
          <rect id="Rectangle_256" data-name="Rectangle 256" width="156.623" height="7.386" fill="#f0f0f0"/>
          <rect id="Rectangle_257" data-name="Rectangle 257" width="156.623" height="7.386" transform="translate(0 10.962)" fill="#f0f0f0"/>
          <rect id="Rectangle_258" data-name="Rectangle 258" width="156.623" height="7.386" transform="translate(0 21.924)" fill="#f0f0f0"/>
          <rect id="Rectangle_259" data-name="Rectangle 259" width="156.623" height="7.386" transform="translate(0 32.886)" fill="#f0f0f0"/>
          <rect id="Rectangle_260" data-name="Rectangle 260" width="156.623" height="7.386" transform="translate(0 43.849)" fill="#f0f0f0"/>
          <rect id="Rectangle_261" data-name="Rectangle 261" width="156.623" height="7.386" transform="translate(0 54.811)" fill="#f0f0f0"/>
          <rect id="Rectangle_262" data-name="Rectangle 262" width="156.623" height="7.386" transform="translate(0 65.773)" fill="#f0f0f0"/>
          <rect id="Rectangle_263" data-name="Rectangle 263" width="156.623" height="7.386" transform="translate(0 76.735)" fill="#f0f0f0"/>
          <rect id="Rectangle_264" data-name="Rectangle 264" width="156.623" height="7.386" transform="translate(0 87.697)" fill="#f0f0f0"/>
          <rect id="Rectangle_265" data-name="Rectangle 265" width="156.623" height="7.386" transform="translate(0 98.659)" fill="#f0f0f0"/>
          <rect id="Rectangle_266" data-name="Rectangle 266" width="156.623" height="7.386" transform="translate(0 109.621)" fill="#f0f0f0"/>
          <rect id="Rectangle_267" data-name="Rectangle 267" width="156.623" height="7.386" transform="translate(0 120.583)" fill="#f0f0f0"/>
          <rect id="Rectangle_268" data-name="Rectangle 268" width="156.623" height="7.386" transform="translate(0 131.546)" fill="#f0f0f0"/>
          <rect id="Rectangle_269" data-name="Rectangle 269" width="156.623" height="7.386" transform="translate(0 142.508)" fill="#f0f0f0"/>
          <rect id="Rectangle_270" data-name="Rectangle 270" width="156.623" height="7.386" transform="translate(0 153.47)" fill="#f0f0f0"/>
          <rect id="Rectangle_271" data-name="Rectangle 271" width="156.623" height="7.386" transform="translate(0 164.432)" fill="#f0f0f0"/>
          <rect id="Rectangle_272" data-name="Rectangle 272" width="156.623" height="7.386" transform="translate(0 175.394)" fill="#f0f0f0"/>
          <rect id="Rectangle_273" data-name="Rectangle 273" width="156.623" height="7.386" transform="translate(0 186.356)" fill="#f0f0f0"/>
          <rect id="Rectangle_274" data-name="Rectangle 274" width="156.623" height="7.386" transform="translate(0 197.318)" fill="#f0f0f0"/>
          <rect id="Rectangle_275" data-name="Rectangle 275" width="156.623" height="7.386" transform="translate(0 208.281)" fill="#f0f0f0"/>
          <rect id="Rectangle_276" data-name="Rectangle 276" width="156.623" height="7.386" transform="translate(0 219.243)" fill="#f0f0f0"/>
          <rect id="Rectangle_277" data-name="Rectangle 277" width="156.623" height="7.386" transform="translate(0 230.205)" fill="#f0f0f0"/>
          <rect id="Rectangle_278" data-name="Rectangle 278" width="156.623" height="7.386" transform="translate(0 241.167)" fill="#f0f0f0"/>
          <rect id="Rectangle_279" data-name="Rectangle 279" width="156.623" height="7.386" transform="translate(0 252.129)" fill="#f0f0f0"/>
          <rect id="Rectangle_280" data-name="Rectangle 280" width="156.623" height="7.386" transform="translate(0 263.091)" fill="#f0f0f0"/>
          <rect id="Rectangle_281" data-name="Rectangle 281" width="156.623" height="7.386" transform="translate(0 274.053)" fill="#f0f0f0"/>
          <rect id="Rectangle_282" data-name="Rectangle 282" width="156.623" height="7.386" transform="translate(0 285.016)" fill="#f0f0f0"/>
        </g>
      </g>
      <g id="Group_347" data-name="Group 347" transform="translate(185.789 0)">
        <rect id="Rectangle_283" data-name="Rectangle 283" width="149.713" height="301.032" transform="translate(3.455 4.085)" fill="#fafafa"/>
        <rect id="Rectangle_284" data-name="Rectangle 284" width="156.623" height="14.772" fill="#f0f0f0"/>
        <g id="Group_346" data-name="Group 346" transform="translate(0 16.409)">
          <rect id="Rectangle_285" data-name="Rectangle 285" width="156.623" height="1.359" fill="#f0f0f0"/>
          <rect id="Rectangle_286" data-name="Rectangle 286" width="156.623" height="1.359" transform="translate(0 3.084)" fill="#f0f0f0"/>
          <rect id="Rectangle_287" data-name="Rectangle 287" width="156.623" height="1.359" transform="translate(0 6.169)" fill="#f0f0f0"/>
          <rect id="Rectangle_288" data-name="Rectangle 288" width="156.623" height="1.359" transform="translate(0 9.253)" fill="#f0f0f0"/>
          <rect id="Rectangle_289" data-name="Rectangle 289" width="156.623" height="1.359" transform="translate(0 12.337)" fill="#f0f0f0"/>
          <rect id="Rectangle_290" data-name="Rectangle 290" width="156.623" height="1.359" transform="translate(0 15.421)" fill="#f0f0f0"/>
          <rect id="Rectangle_291" data-name="Rectangle 291" width="156.623" height="1.359" transform="translate(0 18.506)" fill="#f0f0f0"/>
          <rect id="Rectangle_292" data-name="Rectangle 292" width="156.623" height="1.359" transform="translate(0 21.59)" fill="#f0f0f0"/>
          <rect id="Rectangle_293" data-name="Rectangle 293" width="156.623" height="1.359" transform="translate(0 24.674)" fill="#f0f0f0"/>
          <rect id="Rectangle_294" data-name="Rectangle 294" width="156.623" height="1.359" transform="translate(0 27.759)" fill="#f0f0f0"/>
          <rect id="Rectangle_295" data-name="Rectangle 295" width="156.623" height="1.359" transform="translate(0 30.843)" fill="#f0f0f0"/>
          <rect id="Rectangle_296" data-name="Rectangle 296" width="156.623" height="1.359" transform="translate(0 33.927)" fill="#f0f0f0"/>
          <rect id="Rectangle_297" data-name="Rectangle 297" width="156.623" height="1.359" transform="translate(0 37.011)" fill="#f0f0f0"/>
          <rect id="Rectangle_298" data-name="Rectangle 298" width="156.623" height="1.359" transform="translate(0 40.096)" fill="#f0f0f0"/>
          <rect id="Rectangle_299" data-name="Rectangle 299" width="156.623" height="1.359" transform="translate(0 43.18)" fill="#f0f0f0"/>
          <rect id="Rectangle_300" data-name="Rectangle 300" width="156.623" height="1.359" transform="translate(0 46.264)" fill="#f0f0f0"/>
          <rect id="Rectangle_301" data-name="Rectangle 301" width="156.623" height="1.359" transform="translate(0 49.349)" fill="#f0f0f0"/>
          <rect id="Rectangle_302" data-name="Rectangle 302" width="156.623" height="1.359" transform="translate(0 52.433)" fill="#f0f0f0"/>
        </g>
      </g>
    </g>
    <rect id="Rectangle_303" data-name="Rectangle 303" width="735.889" height="0.368" transform="translate(-1152.902 536.17)" fill="#ececec"/>
    <path id="Path_1147" data-name="Path 1147" d="M-822.1,470.531h-284.2a8.41,8.41,0,0,1-8.4-8.4V62.642a8.409,8.409,0,0,1,8.4-8.4h284.2a8.409,8.409,0,0,1,8.4,8.4V462.13A8.41,8.41,0,0,1-822.1,470.531Zm-284.2-415.92a8.041,8.041,0,0,0-8.033,8.031V462.13a8.041,8.041,0,0,0,8.033,8.033h284.2a8.041,8.041,0,0,0,8.031-8.033V62.642a8.041,8.041,0,0,0-8.031-8.031Z" transform="translate(18.025 0)" fill="#ececec"/>
    <path id="Path_1148" data-name="Path 1148" d="M-605.8,470.531H-890a8.411,8.411,0,0,1-8.4-8.4V62.642a8.41,8.41,0,0,1,8.4-8.4h284.2a8.409,8.409,0,0,1,8.4,8.4V462.13A8.41,8.41,0,0,1-605.8,470.531ZM-890,54.611a8.042,8.042,0,0,0-8.031,8.031V462.13A8.042,8.042,0,0,0-890,470.163h284.2a8.041,8.041,0,0,0,8.033-8.033V62.642a8.041,8.041,0,0,0-8.033-8.031Z" transform="translate(120.069 0)" fill="#ececec"/>
    <ellipse id="_Path_" data-name="&lt;Path&gt;" cx="285.362" cy="16.666" rx="285.362" ry="16.666" transform="translate(-1070.319 569.308)" fill="#f5f5f5"/>
    <rect id="Rectangle_304" data-name="Rectangle 304" width="279.665" height="304.31" rx="3.654" transform="translate(-781.854 199.661)" fill="#3052ce"/>
    <rect id="Rectangle_305" data-name="Rectangle 305" width="279.665" height="304.31" rx="3.654" transform="translate(-790.685 193.774)" fill="#007cff"/>
    <rect id="Rectangle_306" data-name="Rectangle 306" width="279.665" height="304.31" rx="3.654" transform="translate(-790.685 193.774)" fill="#dee3fc"/>
    <rect id="Rectangle_307" data-name="Rectangle 307" width="147.205" height="260.157" rx="3.654" transform="translate(-1016.427 192.466)" fill="#3052ce" opacity="0.51"/>
    <rect id="Rectangle_308" data-name="Rectangle 308" width="147.205" height="260.157" rx="3.654" transform="translate(-1025.258 183.636)" fill="#007cff"/>
    <rect id="Rectangle_309" data-name="Rectangle 309" width="147.205" height="260.157" rx="3.654" transform="translate(-1025.258 183.636)" fill="#dee3fc"/>
    <rect id="Rectangle_310" data-name="Rectangle 310" width="515.411" height="34.228" rx="3.852" transform="translate(-1025.258 107.75)" fill="#3945ba"/>
    <path id="Path_1149" data-name="Path 1149" d="M-747.279,104.366a6.641,6.641,0,0,1-6.605,6.677,6.641,6.641,0,0,1-6.605-6.677,6.641,6.641,0,0,1,6.605-6.677A6.641,6.641,0,0,1-747.279,104.366Z" transform="translate(185.131 20.497)" fill="#b2c1f9"/>
    <path id="Path_1150" data-name="Path 1150" d="M-733.242,104.366a6.642,6.642,0,0,1-6.605,6.677,6.641,6.641,0,0,1-6.605-6.677,6.641,6.641,0,0,1,6.605-6.677A6.642,6.642,0,0,1-733.242,104.366Z" transform="translate(191.754 20.497)" fill="#b2c1f9"/>
    <path id="Path_1151" data-name="Path 1151" d="M-719.205,104.366a6.642,6.642,0,0,1-6.605,6.677,6.641,6.641,0,0,1-6.605-6.677,6.641,6.641,0,0,1,6.605-6.677A6.642,6.642,0,0,1-719.205,104.366Z" transform="translate(198.376 20.497)" fill="#b2c1f9"/>
    <rect id="Rectangle_311" data-name="Rectangle 311" width="16.982" height="17.169" transform="translate(-1013.241 116.279)" fill="#b2c1f9"/>
    <rect id="Rectangle_312" data-name="Rectangle 312" width="158.711" height="30.361" transform="translate(-1045.948 225.103)" fill="#007cff"/>
    <rect id="Rectangle_313" data-name="Rectangle 313" width="158.711" height="30.361" transform="translate(-1045.948 225.103)" fill="#3945ba"/>
    <g id="Group_349" data-name="Group 349" transform="translate(-1035.779 233.946)">
      <rect id="Rectangle_314" data-name="Rectangle 314" width="12.677" height="12.677" fill="#fff"/>
      <path id="Path_1152" data-name="Path 1152" d="M-1071.438,181.66l2.362,3.043,4.767-6.141" transform="translate(1074.212 -175.294)" fill="none" stroke="#007cff" stroke-linecap="round" stroke-linejoin="round" stroke-width="1.5"/>
    </g>
    <path id="Path_1153" data-name="Path 1153" d="M-973.99,190.273h-12.746v-8.616h12.746Zm-6.373-14.955a5.413,5.413,0,0,0-5.406,5.406h1.472a3.938,3.938,0,0,1,3.934-3.934,3.938,3.938,0,0,1,3.934,3.934h1.472A5.412,5.412,0,0,0-980.363,175.318Z" transform="translate(78.393 57.12)" fill="#007cff"/>
    <g id="Group_350" data-name="Group 350" transform="translate(-1069.27 281.224)">
      <rect id="Rectangle_315" data-name="Rectangle 315" width="158.711" height="30.361" fill="#7f95f4"/>
      <rect id="Rectangle_316" data-name="Rectangle 316" width="158.711" height="30.361" fill="#7f95f4" opacity="0.4" style="isolation: isolate"/>
    </g>
    <g id="Group_351" data-name="Group 351" transform="translate(-1059.101 290.066)">
      <rect id="Rectangle_317" data-name="Rectangle 317" width="12.677" height="12.677" fill="#fff"/>
    </g>
    <g id="Group_353" data-name="Group 353" transform="translate(-931.664 288.559)">
      <rect id="Rectangle_318" data-name="Rectangle 318" width="12.745" height="8.617" transform="translate(0 6.339)" fill="#fff"/>
      <g id="Group_352" data-name="Group 352" transform="translate(0.967)">
        <path id="Path_1154" data-name="Path 1154" d="M-991.113,218.855h-1.472a3.938,3.938,0,0,0-3.934-3.934,3.938,3.938,0,0,0-3.934,3.934h-1.472a5.412,5.412,0,0,1,5.406-5.406A5.413,5.413,0,0,1-991.113,218.855Z" transform="translate(1001.925 -213.449)" fill="#fff"/>
      </g>
    </g>
    <rect id="Rectangle_319" data-name="Rectangle 319" width="158.711" height="30.361" transform="translate(-1045.126 339.982)" fill="#007cff"/>
    <rect id="Rectangle_320" data-name="Rectangle 320" width="158.711" height="30.361" transform="translate(-1045.126 339.982)" fill="#b2c1f9"/>
    <g id="Group_354" data-name="Group 354" transform="translate(-1034.957 348.824)">
      <rect id="Rectangle_321" data-name="Rectangle 321" width="12.677" height="12.677" fill="#fff"/>
      <path id="Path_1155" data-name="Path 1155" d="M-1070.88,259.715l2.362,3.043,4.767-6.141" transform="translate(1073.653 -253.349)" fill="none" stroke="#007cff" stroke-linecap="round" stroke-linejoin="round" stroke-width="1.5"/>
    </g>
    <g id="Group_356" data-name="Group 356" transform="translate(-907.52 347.317)" opacity="0.6" style="isolation: isolate">
      <rect id="Rectangle_322" data-name="Rectangle 322" width="12.745" height="8.617" transform="translate(0 6.339)" fill="#fff"/>
      <g id="Group_355" data-name="Group 355" transform="translate(0.966)">
        <path id="Path_1156" data-name="Path 1156" d="M-974.708,258.779h-1.472a3.939,3.939,0,0,0-3.934-3.936,3.94,3.94,0,0,0-3.936,3.936h-1.472a5.413,5.413,0,0,1,5.407-5.407A5.413,5.413,0,0,1-974.708,258.779Z" transform="translate(985.521 -253.372)" fill="#fff"/>
      </g>
    </g>
    <g id="Group_357" data-name="Group 357" transform="translate(-671.68 306.892)">
      <rect id="Rectangle_323" data-name="Rectangle 323" width="123.934" height="80.607" fill="#fff"/>
      <rect id="Rectangle_324" data-name="Rectangle 324" width="123.934" height="80.607" fill="#fff" opacity="0.5" style="isolation: isolate"/>
    </g>
    <rect id="Rectangle_325" data-name="Rectangle 325" width="114.866" height="61.463" transform="translate(-667.146 322.006)" fill="#7f95f4"/>
    <g id="Group_358" data-name="Group 358" transform="translate(-657.786 331.189)">
      <rect id="Rectangle_326" data-name="Rectangle 326" width="84.969" height="2.644" fill="#b2c1f9"/>
      <rect id="Rectangle_327" data-name="Rectangle 327" width="40.768" height="2.644" transform="translate(0 8.098)" fill="#b2c1f9"/>
      <rect id="Rectangle_328" data-name="Rectangle 328" width="51.347" height="2.644" transform="translate(0 16.196)" fill="#b2c1f9"/>
      <rect id="Rectangle_329" data-name="Rectangle 329" width="18.097" height="2.644" transform="translate(0 24.294)" fill="#b2c1f9"/>
      <rect id="Rectangle_330" data-name="Rectangle 330" width="11.719" height="2.644" transform="translate(0 32.391)" fill="#b2c1f9"/>
    </g>
    <path id="Path_1157" data-name="Path 1157" d="M-717.549,337.8v44.942a5.064,5.064,0,0,1-4.324,5.02,3.915,3.915,0,0,1-.761.065H-780.37a5.084,5.084,0,0,1-5.085-5.085V337.8a4.865,4.865,0,0,1,.518-2.218,5.068,5.068,0,0,1,4.567-2.883h22.626a5.137,5.137,0,0,0,3-.971A4.983,4.983,0,0,0-752.9,329.2a5.1,5.1,0,0,1,4.842-3.515h12.049a5.082,5.082,0,0,1,4.842,3.515,5.086,5.086,0,0,0,4.842,3.5h3.693A5.1,5.1,0,0,1-717.549,337.8Z" transform="translate(173.353 128.058)" fill="#7f95f4"/>
    <path id="Path_1158" data-name="Path 1158" d="M-721.873,336.745v47.84l-.065.065H-780.37a5.084,5.084,0,0,1-5.085-5.085V334.623a4.865,4.865,0,0,1,.518-2.218h58.723A4.341,4.341,0,0,1-721.873,336.745Z" transform="translate(173.353 131.23)" fill="#b2c1f9"/>
    <path id="Path_1159" data-name="Path 1159" d="M-816.505,288.96v56.207l-10.979,10.979h-40.268V288.96Z" transform="translate(134.527 110.734)" fill="#007cff"/>
    <path id="Path_1160" data-name="Path 1160" d="M-816.505,288.96v56.207l-10.979,10.979h-40.268V288.96Z" transform="translate(134.527 110.734)" fill="#b2c1f9"/>
    <g id="Group_359" data-name="Group 359" transform="translate(-692.957 455.901)">
      <path id="Path_1161" data-name="Path 1161" d="M-829.413,327.15h-10.979v10.979Z" transform="translate(840.392 -327.15)" fill="#7f95f4"/>
    </g>
    <g id="Group_360" data-name="Group 360" transform="translate(-726.835 411.097)">
      <rect id="Rectangle_331" data-name="Rectangle 331" width="38.642" height="2.109" fill="#7f95f4"/>
      <rect id="Rectangle_332" data-name="Rectangle 332" width="32.509" height="2.108" transform="translate(0 6.457)" fill="#7f95f4"/>
      <rect id="Rectangle_333" data-name="Rectangle 333" width="38.642" height="2.108" transform="translate(0 12.915)" fill="#7f95f4"/>
      <rect id="Rectangle_334" data-name="Rectangle 334" width="14.431" height="2.108" transform="translate(0 19.372)" fill="#7f95f4"/>
      <rect id="Rectangle_335" data-name="Rectangle 335" width="9.345" height="2.109" transform="translate(0 25.829)" fill="#7f95f4"/>
    </g>
    <rect id="Rectangle_336" data-name="Rectangle 336" width="104.771" height="86.571" transform="translate(-752.206 185.154)" fill="#7f95f4"/>
    <path id="Path_1162" data-name="Path 1162" d="M-880.649,143.191v86.571h104.771V143.191ZM-779.3,226.343h-97.937V146.608H-779.3Z" transform="translate(128.443 41.964)" fill="#fff" opacity="0.6" style="isolation: isolate"/>
    <path id="Path_1163" data-name="Path 1163" d="M-878.327,190.629l30.034-21.82,22.308,21.82,22.308-12.759,23.285,14.338v22.049h-97.936Z" transform="translate(129.539 54.05)" fill="#b2c1f9"/>
    <path id="Path_1164" data-name="Path 1164" d="M-825.659,161.175a7.174,7.174,0,0,1-7.173,7.175,7.176,7.176,0,0,1-7.175-7.175A7.174,7.174,0,0,1-832.832,154,7.173,7.173,0,0,1-825.659,161.175Z" transform="translate(147.617 47.064)" fill="#b2c1f9"/>
    <rect id="Rectangle_337" data-name="Rectangle 337" width="118.195" height="99.499" transform="translate(-758.791 178.766)" fill="none" stroke="#1a2e35" stroke-miterlimit="10" stroke-width="1" stroke-dasharray="4 3"/>
    <rect id="Rectangle_338" data-name="Rectangle 338" width="4.641" height="4.641" transform="translate(-642.916 176.446)" fill="#1a2e35"/>
    <rect id="Rectangle_339" data-name="Rectangle 339" width="4.641" height="4.641" transform="translate(-642.916 275.945)" fill="#1a2e35"/>
    <rect id="Rectangle_340" data-name="Rectangle 340" width="4.641" height="4.641" transform="translate(-761.111 275.945)" fill="#1a2e35"/>
    <rect id="Rectangle_341" data-name="Rectangle 341" width="4.641" height="4.641" transform="translate(-761.111 176.446)" fill="#1a2e35"/>
    <rect id="Rectangle_342" data-name="Rectangle 342" width="4.641" height="4.641" transform="translate(-702.141 176.446)" fill="#1a2e35"/>
    <rect id="Rectangle_343" data-name="Rectangle 343" width="4.641" height="4.641" transform="translate(-702.014 275.945)" fill="#1a2e35"/>
    <rect id="Rectangle_344" data-name="Rectangle 344" width="4.641" height="4.641" transform="translate(-642.916 226.195)" fill="#1a2e35"/>
    <rect id="Rectangle_345" data-name="Rectangle 345" width="4.641" height="4.641" transform="translate(-761.111 226.195)" fill="#1a2e35"/>
    <path id="Path_1165" data-name="Path 1165" d="M-969.607,235.91l-15.657,12.718s-3.83.079-5.032,1.344-5.825,10.66-5.169,11.943,8.383,3.813,10.012,2.3,4.458-10.211,4.4-11.138l20.009-13.423Z" transform="translate(74.246 85.706)" fill="#e5918f"/>
    <g id="Group_362" data-name="Group 362" transform="translate(-903.753 274.584)">
      <path id="Path_1166" data-name="Path 1166" d="M-983.618,256.864l3.5,7.638s21.532-10.082,26.2-15.954c1.192-1.516,2.841-3.93,4.621-6.682,2.929-4.548,6.24-10.023,8.536-13.864,1.707-2.87,2.855-4.827,2.855-4.827l-12.186-19.221c-2.664,2.046-10.818,34.9-12.275,36.662S-983.618,256.864-983.618,256.864Z" transform="translate(983.618 -203.954)" fill="#467cdb"/>
      <g id="Group_361" data-name="Group 361" clip-path="url(#clip-path)">
        <path id="Path_1167" data-name="Path 1167" d="M-960.295,238.64c2.929-4.548,6.24-10.023,8.536-13.864l-5.667-13.982S-960.5,226.836-960.295,238.64Z" transform="translate(994.617 -200.727)" fill="#467cdb" opacity="0.1" style="isolation: isolate"/>
      </g>
    </g>
    <path id="Path_1169" data-name="Path 1169" d="M-892.855,192.3l15.434-11.979s1.248-3.622,2.82-4.38,11.933-2.28,12.952-1.261,1.064,9.149-.877,10.235-11.085,1.117-11.952.78l-16.856,12.314Z" transform="translate(122.684 56.659)" fill="#e5918f"/>
    <path id="Path_1170" data-name="Path 1170" d="M-981.378,418.7l9.239,1.631,3.789-12.6,3.457-11.562-10.653-3.721-3.093,13.9Z" transform="translate(80.921 159.559)" fill="#e5918f"/>
    <path id="Path_1171" data-name="Path 1171" d="M-979.551,406.613l10.294,1.355,3.48-11.689-10.641-3.784Z" transform="translate(81.783 159.58)" opacity="0.2" style="isolation: isolate"/>
    <path id="Path_1172" data-name="Path 1172" d="M-939.469,418.789h9.381l1.541-12.588,1.394-11.749-11.137-1.693-.63,13.806Z" transform="translate(100.693 159.704)" fill="#e5918f"/>
    <path id="Path_1173" data-name="Path 1173" d="M-939.1,407.331l10.373-.456,1.394-12.116-11.137-1.876Z" transform="translate(100.869 159.763)" opacity="0.2" style="isolation: isolate"/>
    <g id="Group_364" data-name="Group 364" transform="translate(-898.638 332.372)">
      <g id="Group_363" data-name="Group 363">
        <path id="Path_1174" data-name="Path 1174" d="M-980.142,466.934l15.189,2.677c15.326-38.185,26.229-70.06,33.926-96.51,4.148-14.273,7.434-26.964,9.917-38.228l-.64,41.57v93.762h15.317C-868.915,292.121-895.5,250.721-895.5,250.721l-44.885-7.5c-1.706,6.7-3,17.642-3.759,25.2l-2.025,14.883-17.547,90.622Z" transform="translate(980.142 -243.218)" fill="#002c54"/>
      </g>
    </g>
    <g id="Group_365" data-name="Group 365" transform="translate(-899.908 550.642)">
      <path id="Path_1175" data-name="Path 1175" d="M-962.165,397.768l-18.84-6.246.255,8.013,15.581,4.969Z" transform="translate(981.005 -391.522)" fill="#3052ce"/>
      <path id="Path_1176" data-name="Path 1176" d="M-962.165,397.768l-18.84-6.246.255,8.013,15.581,4.969Z" transform="translate(981.005 -391.522)" fill="#3052ce" opacity="0.6" style="isolation: isolate"/>
    </g>
    <g id="Group_366" data-name="Group 366" transform="translate(-842.556 554.885)">
      <path id="Path_1177" data-name="Path 1177" d="M-922.4,397.279l-19.639-2.875,1.644,7.847,16.207,2.185Z" transform="translate(942.037 -394.404)" fill="#3052ce"/>
      <path id="Path_1178" data-name="Path 1178" d="M-922.4,397.279l-19.639-2.875,1.644,7.847,16.207,2.185Z" transform="translate(942.037 -394.404)" fill="#3052ce" opacity="0.6" style="isolation: isolate"/>
    </g>
    <path id="Path_1179" data-name="Path 1179" d="M-948.175,367.428c.708-2.371,1.461-4.7,2.128-6.989,3.759-12.956,6.271-24.607,9.215-35.065v-.028l1.535-19.252s-9.6-21.152-6.009-36.035c-.333.846-6.686,17.061-4.19,33.261A471.873,471.873,0,0,1-948.175,367.428Z" transform="translate(96.586 101.817)" opacity="0.2" style="isolation: isolate"/>
    <g id="Group_367" data-name="Group 367" transform="translate(-873.029 212.058)">
      <path id="Path_1180" data-name="Path 1180" d="M-945.587,203.4a2.26,2.26,0,0,0,.392.215,16.535,16.535,0,0,0,6.115,2.063c6.262.612,10.308-.761,12.659-3.863l.015,0c3.258-4.62,3.257-12.054,1.573-20.8a33.389,33.389,0,0,0-3.267-10.048c-.018-.026-.031-.128-.047-.153-.069-.1-.131-.252-.2-.355a12.138,12.138,0,0,0-9.8-6.195,24.609,24.609,0,0,0-5.288.093C-960.654,166.416-960.042,195.3-945.587,203.4Z" transform="translate(965.737 -160.2)" fill="#e5918f"/>
      <path id="Path_1181" data-name="Path 1181" d="M-948.786,191.7a16.127,16.127,0,0,0,6.084,1.824c6.262.611,10.282-.961,12.628-4.106a17.285,17.285,0,0,1-11.024.527C-943.707,189.139-946.368,190.073-948.786,191.7Z" transform="translate(969.327 -148.285)" fill="#e5918f" opacity="0.2" style="isolation: isolate"/>
      <path id="Path_1182" data-name="Path 1182" d="M-949.336,206.715c-1.545,4.81,4.623,7.435,4.623,7.435,10.844-3.423,13.32-8.769,13.32-8.769-8.237-5.379-4.468-17.944-4.468-17.944l-1.852.7-12.638,1.21s2.792,6.939,3.1,8.489c0,.013.01.028.009.043C-945.682,205.972-949.336,206.715-949.336,206.715Z" transform="translate(968.588 -149.22)" fill="#e5918f"/>
      <path id="Path_1183" data-name="Path 1183" d="M-925.114,172.122s2.517,11.935-8.235,18.6c0,0-3.276,13.164-10.476,14.281-9.815,1.523-20.318-11.359-18.764-26.074C-960.574,159.846-932.734,154.692-925.114,172.122Z" transform="translate(962.743 -161.471)" fill="#e5918f"/>
      <path id="Path_1184" data-name="Path 1184" d="M-936.86,179.818c-.249-1.879-2.172-4.842-5.039-4.033-2.969.837-3.675,8.514,3.98,9.213C-936.822,185.1-936.341,183.741-936.86,179.818Z" transform="translate(971.589 -154.782)" fill="#e5918f"/>
    </g>
    <path id="Path_1185" data-name="Path 1185" d="M-928.067,409.237h-10.47a.958.958,0,0,0-.93.749l-2.149,9.709a1.608,1.608,0,0,0,1.241,1.907,1.6,1.6,0,0,0,.355.035c4.286-.069,4.63-.333,10.013-.333,3.314,0,13.315.346,17.892.346s5.173-4.521,3.3-4.938c-8.405-1.831-14.731-4.37-17.421-6.782A2.64,2.64,0,0,0-928.067,409.237Z" transform="translate(99.664 167.478)" fill="#1a2e35"/>
    <path id="Path_1186" data-name="Path 1186" d="M-931.849,411.026a.265.265,0,0,1-.194-.222.237.237,0,0,1,.125-.25c.388-.249,3.91-2.414,5.117-1.788a.775.775,0,0,1,.444.721,1.527,1.527,0,0,1-.542,1.386,3.262,3.262,0,0,1-2.094.555A13.094,13.094,0,0,1-931.849,411.026Zm.749-.361a5.306,5.306,0,0,0,3.884-.194,1.069,1.069,0,0,0,.346-.93c-.013-.208-.1-.3-.166-.3a.593.593,0,0,0-.332-.069A10.556,10.556,0,0,0-931.1,410.665Z" transform="translate(104.195 167.202)" fill="#007cff"/>
    <path id="Path_1187" data-name="Path 1187" d="M-931.919,411.871a.275.275,0,0,1-.125-.236c.013-.152.277-3.286,1.54-4.314a1.39,1.39,0,0,1,1.1-.333.847.847,0,0,1,.832.68c.222,1.151-1.956,3.55-3.079,4.161h-.125A.235.235,0,0,1-931.919,411.871Zm1.747-4.243a6.107,6.107,0,0,0-1.289,3.412c1.123-.846,2.511-2.664,2.371-3.37-.013-.069-.041-.263-.374-.263h-.125A.88.88,0,0,0-930.172,407.628Z" transform="translate(104.196 166.412)" fill="#007cff"/>
    <path id="Path_1188" data-name="Path 1188" d="M-970.5,409.237h-10.47a.958.958,0,0,0-.929.749l-2.15,9.709a1.608,1.608,0,0,0,1.241,1.907,1.6,1.6,0,0,0,.355.035c4.286-.069,4.63-.333,10.012-.333,3.315,0,13.315.346,17.893.346s5.173-4.521,3.3-4.938c-8.405-1.831-14.731-4.37-17.421-6.782A2.64,2.64,0,0,0-970.5,409.237Z" transform="translate(79.643 167.478)" fill="#1a2e35"/>
    <path id="Path_1189" data-name="Path 1189" d="M-974.285,411.026a.264.264,0,0,1-.194-.222.237.237,0,0,1,.125-.25c.389-.249,3.912-2.414,5.119-1.788a.777.777,0,0,1,.443.721,1.526,1.526,0,0,1-.54,1.386,3.269,3.269,0,0,1-2.1.555A13.1,13.1,0,0,1-974.285,411.026Zm.749-.361a5.305,5.305,0,0,0,3.884-.194,1.07,1.07,0,0,0,.346-.93c-.013-.208-.1-.3-.166-.3a.592.592,0,0,0-.333-.069A10.555,10.555,0,0,0-973.536,410.665Z" transform="translate(84.175 167.202)" fill="#007cff"/>
    <path id="Path_1190" data-name="Path 1190" d="M-974.355,411.871a.274.274,0,0,1-.125-.236c.015-.152.278-3.286,1.539-4.314a1.392,1.392,0,0,1,1.1-.333.847.847,0,0,1,.832.68c.222,1.151-1.956,3.55-3.079,4.161h-.125A.229.229,0,0,1-974.355,411.871Zm1.747-4.243a6.118,6.118,0,0,0-1.289,3.412c1.123-.846,2.511-2.664,2.373-3.37-.015-.069-.043-.263-.375-.263h-.125A.88.88,0,0,0-972.608,407.628Z" transform="translate(84.176 166.412)" fill="#007cff"/>
    <g id="Group_369" data-name="Group 369" transform="translate(-870.225 264.377)">
      <path id="Path_1191" data-name="Path 1191" d="M-904.612,272.683s8.563-52.172-6.154-75.564c0,0-29.393-1.826-50.071,10.11,0,0,8.544,23.228,9.817,65.454Z" transform="translate(960.837 -197.019)" fill="#467cdb"/>
      <g id="Group_368" data-name="Group 368" clip-path="url(#clip-path-2)">
        <path id="Path_1192" data-name="Path 1192" d="M-917.082,231.215c.633-7.079-1.414-13.894-1.768-19.9a57.717,57.717,0,0,1-9.674-11.031S-931.2,221.421-917.082,231.215Z" transform="translate(975.986 -195.478)" fill="#467cdb" opacity="0.1" style="isolation: isolate"/>
      </g>
    </g>
    <path id="Path_1194" data-name="Path 1194" d="M-929.141,203.556s29.128-3.415,33.509-5.251c2.743-1.151,24.155-15.142,24.155-15.142l5.019,7.475s-21.906,17.689-25.609,19.723c-8.687,4.77-28.2,11.5-28.2,11.5S-932.064,213.663-929.141,203.556Z" transform="translate(105.346 60.822)" fill="#467cdb"/>
    <path id="Path_1195" data-name="Path 1195" d="M-919.818,181.555s12.107-12.107.69-20.258-22.895,2.483-22.895,2.483-27.329,6.6-21.512,24.766,9.618,19.714.966,29.032-17.5,23.123-8.651,31.941,39.762-.253,49.146-13.573S-929.274,194.049-919.818,181.555Z" transform="translate(83.983 49.055)" fill="#1a2e35"/>
    <g id="Group_370" data-name="Group 370" transform="translate(-860.594 335.094)">
      <path id="Path_1196" data-name="Path 1196" d="M-954.108,250.015l-.185-4.948,47.131,1.2v4.576Z" transform="translate(954.293 -245.067)"/>
      <rect id="Rectangle_346" data-name="Rectangle 346" width="1.898" height="4.875" transform="translate(13.229 0.336)" fill="#1a2e35"/>
      <rect id="Rectangle_347" data-name="Rectangle 347" width="1.677" height="5.321" transform="translate(35.208 0.894)" fill="#1a2e35"/>
      <rect id="Rectangle_348" data-name="Rectangle 348" width="1.602" height="5.699" transform="translate(1.295 0.074)" fill="#1a2e35"/>
    </g>
  </g>
</svg>
