<svg xmlns="http://www.w3.org/2000/svg" width="27" height="28" viewBox="0 0 27 28">
  <g id="calendar" style="isolation: isolate">
    <path id="Path_212" data-name="Path 212" d="M120.526,258.877a.636.636,0,0,0-.636-.635h-2.219a.635.635,0,0,0-.636.635V261.1a.636.636,0,0,0,.636.636h2.219a.636.636,0,0,0,.636-.636v-2.219Z" transform="translate(-110.735 -243.431)" fill="#4859a8"/>
    <path id="Path_213" data-name="Path 213" d="M217.16,258.877a.635.635,0,0,0-.635-.635h-2.219a.636.636,0,0,0-.636.635V261.1a.636.636,0,0,0,.636.636h2.219a.636.636,0,0,0,.635-.636Z" transform="translate(-201.915 -243.431)" fill="#4859a8"/>
    <path id="Path_214" data-name="Path 214" d="M313.789,258.877a.636.636,0,0,0-.636-.635h-2.219a.636.636,0,0,0-.636.635V261.1a.636.636,0,0,0,.636.636h2.219a.636.636,0,0,0,.636-.636Z" transform="translate(-293.089 -243.431)" fill="#4859a8"/>
    <path id="Path_215" data-name="Path 215" d="M120.526,355.511a.635.635,0,0,0-.636-.636h-2.219a.635.635,0,0,0-.636.636v2.219a.636.636,0,0,0,.636.636h2.219a.636.636,0,0,0,.636-.636v-2.219Z" transform="translate(-110.735 -334.525)" fill="#4859a8"/>
    <path id="Path_216" data-name="Path 216" d="M217.16,355.511a.635.635,0,0,0-.635-.636h-2.219a.635.635,0,0,0-.636.636v2.219a.636.636,0,0,0,.636.636h2.219a.636.636,0,0,0,.635-.636Z" transform="translate(-201.915 -334.525)" fill="#4859a8"/>
    <path id="Path_217" data-name="Path 217" d="M313.789,355.511a.635.635,0,0,0-.635-.636h-2.22a.635.635,0,0,0-.636.636v2.219a.636.636,0,0,0,.636.636h2.22a.636.636,0,0,0,.635-.636v-2.219Z" transform="translate(-293.089 -334.525)" fill="#4859a8"/>
    <path id="Path_218" data-name="Path 218" d="M30.008,54.154v3.387a2.747,2.747,0,0,1-2.734,2.764H25.549A2.761,2.761,0,0,1,22.8,57.541v-3.4H15.024v3.4a2.761,2.761,0,0,1-2.75,2.764H10.548a2.747,2.747,0,0,1-2.734-2.764V54.154a2.5,2.5,0,0,0-2.4,2.508V76.51a2.505,2.505,0,0,0,2.475,2.524h22.05a2.508,2.508,0,0,0,2.475-2.524V56.662A2.5,2.5,0,0,0,30.008,54.154Zm-.8,21.12a1.078,1.078,0,0,1-1.07,1.085H9.638a1.078,1.078,0,0,1-1.07-1.085V65.022a1.078,1.078,0,0,1,1.07-1.085h18.5a1.078,1.078,0,0,1,1.07,1.085V75.274Z" transform="translate(-5.411 -51.034)" fill="#4859a8"/>
    <path id="Path_219" data-name="Path 219" d="M80.5,7.458h1.731a.951.951,0,0,0,.952-.951V.951A.951.951,0,0,0,82.233,0H80.5a.951.951,0,0,0-.952.951V6.507A.951.951,0,0,0,80.5,7.458Z" transform="translate(-75.366)" fill="#4859a8"/>
    <path id="Path_220" data-name="Path 220" d="M345.409,7.458h1.731a.951.951,0,0,0,.951-.951V.951A.951.951,0,0,0,347.141,0h-1.731a.951.951,0,0,0-.951.951V6.507A.951.951,0,0,0,345.409,7.458Z" transform="translate(-325.323)" fill="#4859a8"/>
  </g>
</svg>
