<svg xmlns="http://www.w3.org/2000/svg" xmlns:xlink="http://www.w3.org/1999/xlink" width="915" height="454.297" viewBox="0 0 915 454.297">
  <defs>
    <linearGradient id="linear-gradient" x1="0.998" y1="0.5" x2="0" y2="0.5" gradientUnits="objectBoundingBox">
      <stop offset="0" stop-color="#fff"/>
      <stop offset="0.473" stop-color="#3945ba"/>
      <stop offset="1" stop-color="#fff"/>
    </linearGradient>
  </defs>
  <g id="landing-illustration" transform="translate(-503 -571.703)">
    <g id="Group_335" data-name="Group 335" transform="translate(96.514 45.178)">
      <path id="Path_1123" data-name="Path 1123" d="M750.934,137.386S730.491-19.546,562.769,12.251,290.43,280.32,158.835,221.594,120.382,39.146,189.809,61.851,689.337,322.487,787.606,212.8" transform="translate(429.994 526.151)" fill="none" stroke="#dee3fc" stroke-linecap="round" stroke-miterlimit="10" stroke-width="3" stroke-dasharray="7 0 0" opacity="0.678"/>
      <g id="Group_333" data-name="Group 333" transform="translate(458.486 570.734)">
        <g id="Group_331" data-name="Group 331" transform="translate(0 51.256)">
          <path id="Path_1133" data-name="Path 1133" d="M299.13,121.977s-16.525-11.544-34.779,8.423c0,0,12.405-55.752,52.8-37.692l1.712,19.571Z" transform="translate(-264.351 -89.107)" fill="#3945ba"/>
          <path id="Path_1134" data-name="Path 1134" d="M318.384,140.65s12.976,15.426-5.277,35.392c0,0,54.42-17.342,32.817-55.955l-19.646.046Z" transform="translate(-260.512 -86.668)" fill="#3945ba"/>
        </g>
        <path id="Path_1135" data-name="Path 1135" d="M374.9,97.53a124.081,124.081,0,0,0,11.189-18.963,69.229,69.229,0,0,1-15.612-10.8,69.213,69.213,0,0,1-12.151-14.584,124.133,124.133,0,0,0-17.886,12.841C314.17,88.55,291.2,135.911,291.2,135.911l9.251,8.457,9.251,8.457S354.817,125.71,374.9,97.53Z" transform="translate(-262.237 -40.679)" fill="#b2c1f9"/>
        <path id="Path_1136" data-name="Path 1136" d="M365.565,68.682a63.954,63.954,0,0,0,15.7,10.621c10.38-22.041,9.067-37.711,9.067-37.711S374.6,41.686,353.582,54A63.922,63.922,0,0,0,365.565,68.682Z" transform="translate(-257.326 -41.592)" fill="#3945ba"/>
        <g id="Group_332" data-name="Group 332" transform="translate(24.217 90.47)">
          <path id="Path_1137" data-name="Path 1137" d="M288.343,133.723l18.5,16.916c4.518,4.13,10.922-2.875,6.4-7.005l-18.5-16.916c-4.518-4.13-10.922,2.875-6.4,7.005Z" transform="translate(-286.8 -125.459)" fill="#c3c8dd"/>
        </g>
        <path id="Path_1138" data-name="Path 1138" d="M361.473,98.547a17.324,17.324,0,1,1-1.1-24.474A17.323,17.323,0,0,1,361.473,98.547Z" transform="translate(-259.075 -39.392)" fill="#3945ba"/>
        <path id="Path_1139" data-name="Path 1139" d="M356.982,94.407a11.787,11.787,0,1,1-.746-16.652A11.787,11.787,0,0,1,356.982,94.407Z" transform="translate(-258.671 -38.988)" fill="#b2c1f9"/>
        <path id="Path_1140" data-name="Path 1140" d="M313.293,92.786l32.749,29.94q2.184-1.83,4.358-3.732L316.62,88.112Q314.921,90.44,313.293,92.786Z" transform="translate(-260.498 -37.929)" fill="#c3c8dd"/>
        <path id="Path_1141" data-name="Path 1141" d="M303.6,107.788l28.045,25.638q2.273-1.67,4.642-3.472l-29.644-27.1Q305.06,105.37,303.6,107.788Z" transform="translate(-261.261 -36.769)" fill="#c3c8dd"/>
        <path id="Path_1142" data-name="Path 1142" d="M288.79,152.873a23.006,23.006,0,0,1,.434-3,42.654,42.654,0,0,1,2.084-7.054,51.667,51.667,0,0,1,4.36-8.683,59.6,59.6,0,0,1,6.513-8.567,58.854,58.854,0,0,1,7.935-7.269,51.05,51.05,0,0,1,8.254-5.12c1.323-.645,2.578-1.2,3.738-1.643s2.21-.8,3.112-1.056a22.919,22.919,0,0,1,2.96-.693,23.336,23.336,0,0,1-.425,3.01c-.177.92-.435,2-.773,3.2s-.778,2.494-1.3,3.869a50.955,50.955,0,0,1-4.361,8.678,58.874,58.874,0,0,1-6.53,8.554,59.586,59.586,0,0,1-7.95,7.253,51.765,51.765,0,0,1-8.257,5.12,42.863,42.863,0,0,1-6.839,2.708A23.039,23.039,0,0,1,288.79,152.873Z" transform="translate(-262.427 -36.223)" fill="#3945ba"/>
      </g>
      <g id="Group_267" data-name="Group 267" transform="translate(591.544 543.502)">
        <circle id="Ellipse_21" data-name="Ellipse 21" cx="4.145" cy="4.145" r="4.145" transform="translate(42.334 357.511)" fill="#a4afff" opacity="0.228"/>
        <circle id="Ellipse_22" data-name="Ellipse 22" cx="4.145" cy="4.145" r="4.145" transform="translate(623.885 189.169)" fill="#a4afff" opacity="0.228"/>
        <circle id="Ellipse_23" data-name="Ellipse 23" cx="4.145" cy="4.145" r="4.145" transform="translate(586.069 120.028)" fill="#a4afff" opacity="0.228"/>
        <circle id="Ellipse_24" data-name="Ellipse 24" cx="2.6" cy="2.6" r="2.6" transform="translate(441.863 47.482)" fill="#a4afff" opacity="0.228"/>
        <path id="Path_990" data-name="Path 990" d="M76.512-8.273a2.6,2.6,0,0,1-2.6,2.6,2.6,2.6,0,0,1-2.6-2.6,2.6,2.6,0,0,1,2.6-2.6A2.6,2.6,0,0,1,76.512-8.273Z" transform="translate(-13.807 23.72)" fill="#a4afff" opacity="0.228"/>
        <path id="Path_992" data-name="Path 992" d="M45.6,277.933a2.6,2.6,0,1,1-2.6-2.6A2.6,2.6,0,0,1,45.6,277.933Z" transform="translate(-20.735 87.868)" fill="#a4afff" opacity="0.228"/>
        <circle id="Ellipse_26" data-name="Ellipse 26" cx="4.145" cy="4.145" r="4.145" transform="translate(624.973 359.96)" fill="#a4afff" opacity="0.228"/>
        <circle id="Ellipse_27" data-name="Ellipse 27" cx="4.145" cy="4.145" r="4.145" transform="translate(130.023)" fill="#a4afff" opacity="0.228"/>
        <path id="Path_994" data-name="Path 994" d="M35.429,81.066a5.547,5.547,0,1,1-5.547-5.545A5.546,5.546,0,0,1,35.429,81.066Z" transform="translate(-24.336 43.084)" fill="#a4afff" opacity="0.228"/>
      </g>
      <g id="Group_282" data-name="Group 282" transform="translate(761.061 535.176)">
        <g id="Group_274" data-name="Group 274">
          <rect id="Rectangle_219" data-name="Rectangle 219" width="217.896" height="420.93" rx="21.349" fill="#3945ba"/>
          <rect id="Rectangle_220" data-name="Rectangle 220" width="209.736" height="411.263" rx="18.7" transform="translate(4.08 3.685)" fill="#fff"/>
          <path id="Path_995" data-name="Path 995" d="M365.021-4.207V360.849a15.5,15.5,0,0,1-15.5,15.5H189.151a15.5,15.5,0,0,1-15.5-15.5V-4.207a15.5,15.5,0,0,1,15.5-15.5h26.742a3.919,3.919,0,0,1,3.5,2.164l2.84,5.669a7.661,7.661,0,0,0,6.87,4.255H309.56a7.664,7.664,0,0,0,6.871-4.255l2.839-5.669a3.921,3.921,0,0,1,3.506-2.164h26.742A15.5,15.5,0,0,1,365.021-4.207Z" transform="translate(-160.386 30.066)" fill="#dee3fc"/>
          <path id="Path_996" data-name="Path 996" d="M291.76-14.253h-64.8a2.729,2.729,0,0,1-2.729-2.729h0a2.728,2.728,0,0,1,2.729-2.727h64.8a2.727,2.727,0,0,1,2.727,2.727h0A2.728,2.728,0,0,1,291.76-14.253Z" transform="translate(-149.048 30.066)" fill="#dee3fc"/>
        </g>
        <rect id="Rectangle_221" data-name="Rectangle 221" width="164.707" height="71.429" rx="8.379" transform="translate(24.728 322.317)" fill="none" stroke="#698bd1" stroke-linecap="round" stroke-linejoin="round" stroke-width="1" stroke-dasharray="2.837"/>
        <rect id="Rectangle_222" data-name="Rectangle 222" width="86.327" height="50.15" rx="6.044" transform="translate(92.941 168.317)" fill="none" stroke="#698bd1" stroke-linecap="round" stroke-linejoin="round" stroke-width="1" stroke-dasharray="2.837"/>
        <g id="Group_278" data-name="Group 278" transform="translate(24.727 224.03)">
          <rect id="Rectangle_223" data-name="Rectangle 223" width="165.361" height="79.939" rx="7.201" transform="translate(5.996 6.467)" fill="#4b5a9b"/>
          <path id="Path_997" data-name="Path 997" d="M347.721,163.643v62.345a8.793,8.793,0,0,1-8.8,8.789h-147.1a8.793,8.793,0,0,1-8.8-8.789V163.643a8.8,8.8,0,0,1,8.8-8.8h147.1A8.8,8.8,0,0,1,347.721,163.643Z" transform="translate(-183.014 -154.841)" fill="#7f95f4"/>
          <rect id="Rectangle_224" data-name="Rectangle 224" width="55.238" height="55.238" rx="4.861" transform="translate(7.61 18.201)" fill="#fff"/>
          <g id="Group_275" data-name="Group 275" transform="translate(68.214 21.432)">
            <path id="Path_998" data-name="Path 998" d="M278.786,176.107H240.617a1.879,1.879,0,0,1-1.879-1.879h0a1.88,1.88,0,0,1,1.879-1.879h38.168a1.879,1.879,0,0,1,1.879,1.879h0A1.879,1.879,0,0,1,278.786,176.107Z" transform="translate(-238.738 -172.349)" fill="#b2c1f9"/>
            <path id="Path_999" data-name="Path 999" d="M261.392,182.237H240.617a1.88,1.88,0,0,1-1.879-1.879h0a1.88,1.88,0,0,1,1.879-1.88h20.775a1.88,1.88,0,0,1,1.879,1.88h0A1.879,1.879,0,0,1,261.392,182.237Z" transform="translate(-238.738 -170.975)" fill="#b2c1f9"/>
            <path id="Path_1000" data-name="Path 1000" d="M320.049,182.237H263.834a1.879,1.879,0,0,1-1.879-1.879h0a1.88,1.88,0,0,1,1.879-1.88h56.215a1.88,1.88,0,0,1,1.879,1.88h0A1.879,1.879,0,0,1,320.049,182.237Z" transform="translate(-233.534 -170.975)" fill="#b2c1f9"/>
            <path id="Path_1001" data-name="Path 1001" d="M272.76,188.366H240.617a1.879,1.879,0,0,1-1.879-1.879h0a1.879,1.879,0,0,1,1.879-1.879H272.76a1.879,1.879,0,0,1,1.879,1.879h0A1.879,1.879,0,0,1,272.76,188.366Z" transform="translate(-238.738 -169.601)" fill="#b2c1f9"/>
            <path id="Path_1002" data-name="Path 1002" d="M292.863,188.366H272.656a1.879,1.879,0,0,1-1.879-1.879h0a1.879,1.879,0,0,1,1.879-1.879h20.207a1.879,1.879,0,0,1,1.879,1.879h0A1.879,1.879,0,0,1,292.863,188.366Z" transform="translate(-231.557 -169.601)" fill="#b2c1f9"/>
            <path id="Path_1003" data-name="Path 1003" d="M313.163,188.366H294.555a1.879,1.879,0,0,1-1.879-1.879h0a1.879,1.879,0,0,1,1.879-1.879h18.608a1.879,1.879,0,0,1,1.879,1.879h0A1.879,1.879,0,0,1,313.163,188.366Z" transform="translate(-226.649 -169.601)" fill="#b2c1f9"/>
            <path id="Path_1004" data-name="Path 1004" d="M325.252,194.5H240.617a1.879,1.879,0,0,1-1.879-1.879h0a1.879,1.879,0,0,1,1.879-1.879h84.635a1.879,1.879,0,0,1,1.879,1.879h0A1.879,1.879,0,0,1,325.252,194.5Z" transform="translate(-238.738 -168.228)" fill="#b2c1f9"/>
            <path id="Path_1005" data-name="Path 1005" d="M287.2,200.624H240.617a1.879,1.879,0,0,1-1.879-1.879h0a1.879,1.879,0,0,1,1.879-1.879H287.2a1.879,1.879,0,0,1,1.879,1.879h0A1.879,1.879,0,0,1,287.2,200.624Z" transform="translate(-238.738 -166.854)" fill="#b2c1f9"/>
            <path id="Path_1006" data-name="Path 1006" d="M315.349,200.624H284.8a1.879,1.879,0,0,1-1.879-1.879h0a1.879,1.879,0,0,1,1.879-1.879h30.545a1.879,1.879,0,0,1,1.879,1.879h0A1.879,1.879,0,0,1,315.349,200.624Z" transform="translate(-228.834 -166.854)" fill="#b2c1f9"/>
            <path id="Path_1007" data-name="Path 1007" d="M267.985,206.753H240.617a1.879,1.879,0,0,1-1.879-1.879h0a1.88,1.88,0,0,1,1.879-1.879h27.368a1.88,1.88,0,0,1,1.88,1.879h0A1.88,1.88,0,0,1,267.985,206.753Z" transform="translate(-238.738 -165.48)" fill="#b2c1f9"/>
            <path id="Path_1008" data-name="Path 1008" d="M296.394,206.753H269.025a1.879,1.879,0,0,1-1.879-1.879h0a1.88,1.88,0,0,1,1.879-1.879h27.369a1.88,1.88,0,0,1,1.879,1.879h0A1.88,1.88,0,0,1,296.394,206.753Z" transform="translate(-232.371 -165.48)" fill="#b2c1f9"/>
            <path id="Path_1009" data-name="Path 1009" d="M312.664,206.753H296.783a1.88,1.88,0,0,1-1.879-1.879h0a1.88,1.88,0,0,1,1.879-1.879h15.881a1.879,1.879,0,0,1,1.879,1.879h0A1.879,1.879,0,0,1,312.664,206.753Z" transform="translate(-226.149 -165.48)" fill="#b2c1f9"/>
            <path id="Path_1010" data-name="Path 1010" d="M278.786,212.883H240.617A1.88,1.88,0,0,1,238.738,211h0a1.88,1.88,0,0,1,1.879-1.88h38.168a1.88,1.88,0,0,1,1.879,1.88h0A1.879,1.879,0,0,1,278.786,212.883Z" transform="translate(-238.738 -164.106)" fill="#b2c1f9"/>
            <path id="Path_1011" data-name="Path 1011" d="M316.745,176.107H278.577a1.88,1.88,0,0,1-1.88-1.879h0a1.88,1.88,0,0,1,1.88-1.879h38.167a1.879,1.879,0,0,1,1.879,1.879h0A1.879,1.879,0,0,1,316.745,176.107Z" transform="translate(-230.23 -172.349)" fill="#b2c1f9"/>
          </g>
          <g id="Group_277" data-name="Group 277">
            <path id="Path_1012" data-name="Path 1012" d="M347.721,163.643v2.62H183.014v-2.62a8.8,8.8,0,0,1,8.8-8.8h147.1A8.8,8.8,0,0,1,347.721,163.643Z" transform="translate(-183.014 -154.841)" fill="#3052ce"/>
            <g id="Group_276" data-name="Group 276" transform="translate(129.582 3.877)">
              <path id="Path_1013" data-name="Path 1013" d="M292.95,160.047a2.04,2.04,0,1,1-2.041-2.039A2.04,2.04,0,0,1,292.95,160.047Z" transform="translate(-288.87 -158.008)" fill="#dee3fc"/>
              <path id="Path_1014" data-name="Path 1014" d="M301.478,160.047a2.04,2.04,0,1,1-2.041-2.039A2.04,2.04,0,0,1,301.478,160.047Z" transform="translate(-286.959 -158.008)" fill="#dee3fc"/>
              <path id="Path_1015" data-name="Path 1015" d="M310.006,160.047a2.04,2.04,0,1,1-2.041-2.039A2.04,2.04,0,0,1,310.006,160.047Z" transform="translate(-285.047 -158.008)" fill="#dee3fc"/>
            </g>
          </g>
        </g>
        <g id="Group_280" data-name="Group 280" transform="translate(34.37 168.363)">
          <rect id="Rectangle_225" data-name="Rectangle 225" width="50.105" height="50.105" rx="7.151" fill="none" stroke="#495ad6" stroke-miterlimit="10" stroke-width="0.896"/>
          <g id="Group_562" data-name="Group 562" transform="translate(6.806 15.898)">
            <path id="Path_1999" data-name="Path 1999" d="M2196.947-2382.118v-3.045l10.678-4.677v3.111l-7.457,3.067,7.457,3.067v3.155Z" transform="translate(-2196.947 2393.48)" fill="#272e69"/>
            <path id="Path_2000" data-name="Path 2000" d="M2249.481-2402.811h2.846l-9.774,20.431h-2.846Z" transform="translate(-2227.705 2402.811)" fill="#272e69"/>
            <path id="Path_2001" data-name="Path 2001" d="M2299.592-2385.163v3.045l-10.679,4.677v-3.111l7.458-3.066-7.458-3.067v-3.155Z" transform="translate(-2263.1 2393.48)" fill="#272e69"/>
          </g>
        </g>
        <g id="Group_281" data-name="Group 281" transform="translate(24.727 36.052)">
          <rect id="Rectangle_226" data-name="Rectangle 226" width="164.707" height="121.96" rx="8.18" transform="translate(0 0)" fill="#b2c1f9"/>
          <circle id="Ellipse_28" data-name="Ellipse 28" cx="23.871" cy="23.871" r="23.871" transform="translate(107.479 8.336)" fill="#f0f4ff"/>
          <path id="Path_1018" data-name="Path 1018" d="M279.831,118.2h-86.8a10.018,10.018,0,0,1-10.013-10.013V92.141L221,26.343a5.159,5.159,0,0,1,8.936,0l28.681,49.675,21.3,36.9A5.062,5.062,0,0,1,279.831,118.2Z" transform="translate(-183.014 3.758)" fill="#fff"/>
          <path id="Path_1019" data-name="Path 1019" d="M307.883,113.222H224.874l24.36-42.184,13.123-22.732a4.642,4.642,0,0,1,8.043,0Z" transform="translate(-173.632 8.738)" fill="#f0f4ff"/>
        </g>
      </g>
      <g id="Group_292" data-name="Group 292" transform="translate(951.426 698.915)">
        <g id="Group_284" data-name="Group 284" transform="translate(69.264 183.684)">
          <rect id="Rectangle_227" data-name="Rectangle 227" width="63.993" height="96.172" transform="translate(0 0)" fill="#3b47bc"/>
          <rect id="Rectangle_228" data-name="Rectangle 228" width="24.503" height="96.172" transform="translate(88.496 96.172) rotate(180)" fill="#495ad6"/>
          <g id="Group_283" data-name="Group 283" transform="translate(67.501 3.693)">
            <rect id="Rectangle_229" data-name="Rectangle 229" width="17.99" height="3.069" fill="#b2c1f9"/>
            <rect id="Rectangle_230" data-name="Rectangle 230" width="17.99" height="3.069" transform="translate(0 6.594)" fill="#b2c1f9"/>
            <rect id="Rectangle_231" data-name="Rectangle 231" width="17.99" height="3.069" transform="translate(0 13.187)" fill="#b2c1f9"/>
            <rect id="Rectangle_232" data-name="Rectangle 232" width="17.99" height="3.069" transform="translate(0 19.781)" fill="#b2c1f9"/>
            <rect id="Rectangle_233" data-name="Rectangle 233" width="17.99" height="3.069" transform="translate(0 26.374)" fill="#b2c1f9"/>
            <rect id="Rectangle_234" data-name="Rectangle 234" width="17.99" height="3.069" transform="translate(0 32.968)" fill="#b2c1f9"/>
            <rect id="Rectangle_235" data-name="Rectangle 235" width="17.99" height="3.069" transform="translate(0 39.561)" fill="#b2c1f9"/>
            <rect id="Rectangle_236" data-name="Rectangle 236" width="17.99" height="3.069" transform="translate(0 46.155)" fill="#b2c1f9"/>
            <rect id="Rectangle_237" data-name="Rectangle 237" width="17.99" height="3.069" transform="translate(0 52.748)" fill="#b2c1f9"/>
            <rect id="Rectangle_238" data-name="Rectangle 238" width="17.99" height="3.069" transform="translate(0 59.342)" fill="#b2c1f9"/>
            <rect id="Rectangle_239" data-name="Rectangle 239" width="17.99" height="3.069" transform="translate(0 65.935)" fill="#b2c1f9"/>
            <rect id="Rectangle_240" data-name="Rectangle 240" width="17.99" height="3.069" transform="translate(0 72.529)" fill="#b2c1f9"/>
            <rect id="Rectangle_241" data-name="Rectangle 241" width="17.99" height="3.069" transform="translate(0 79.122)" fill="#b2c1f9"/>
            <rect id="Rectangle_242" data-name="Rectangle 242" width="17.99" height="3.069" transform="translate(0 85.716)" fill="#b2c1f9"/>
          </g>
        </g>
        <g id="Group_291" data-name="Group 291" transform="translate(0 0)">
          <path id="Path_1020" data-name="Path 1020" d="M366.422,336.578h32.524s1.818-5.791-2.121-12.966c0,0-2.618,2.1-10.459.679a34.844,34.844,0,0,1-5.533,3.866C378.56,329.256,365.545,331.812,366.422,336.578Z" transform="translate(-307.554 -56.723)" fill="#281616"/>
          <path id="Path_1021" data-name="Path 1021" d="M368.4,260.5c2.1,12.534,11.793,54.939,15.96,79.99,7.615.649,11.273-.225,13.211-.672-.379-8.735-1.131-29.63-1.042-38.794.144-15.487.872-35.909-5.946-47.116l-22.924,1.8c.14,1.209.267,2.195.379,2.9C368.15,259.283,368.276,259.906,368.4,260.5Z" transform="translate(-307.266 -72.347)" fill="#002c54"/>
          <path id="Path_1022" data-name="Path 1022" d="M318.367,336.578H350.89s1.818-5.791-2.121-12.966c0,0-2.618,2.1-10.459.679a34.874,34.874,0,0,1-5.532,3.866C330.505,329.256,317.49,331.812,318.367,336.578Z" transform="translate(-318.324 -56.723)" fill="#281616"/>
          <path id="Path_1023" data-name="Path 1023" d="M333.88,341.135a37.336,37.336,0,0,0,12.847,1.148c1.73-10.07,4.461-32.225,6.92-42.61,3.814-16.143,7.547-38.342,4.954-46.263l-22.55-5.663C335.977,248.462,334.141,316.4,333.88,341.135Z" transform="translate(-314.838 -73.727)" fill="#052635"/>
          <path id="Path_1024" data-name="Path 1024" d="M423.238,230.278h0c-.453-4.456-.974-7.711-.974-7.711l-25.193,6.166-21.4,4.876c-7.934,1.768-17.517,3.9-25.966,5.8-9.482,2.154-15.777,9.356-13.7,18.85l2.376,11.515c13.261-.181,75.61-6.157,80.942-8.85C425.347,257.886,427.161,247.128,423.238,230.278Z" transform="translate(-314.451 -79.371)" fill="#052635"/>
          <path id="Path_1025" data-name="Path 1025" d="M453.959,230.557h0a34.8,34.8,0,0,0-2.626-9.237l-23.541,7.692-21.4,4.876c-7.934,1.768-17.517,3.9-25.968,5.8-9.481,2.154-15.775,9.356-13.7,18.85l2.376,11.515c13.261-.181,68.687-2.113,80.942-8.85C455.958,257.956,457.883,247.408,453.959,230.557Z" transform="translate(-307.565 -79.65)" fill="#002c54"/>
          <g id="Group_285" data-name="Group 285" transform="translate(38.846 112.559)">
            <path id="Path_1026" data-name="Path 1026" d="M387.092,199.782s11.19-5.054,14.27.015c1.686,2.775.519,7.93-3.3,10.094s-25.382,11.285-45.736,16.372a49.675,49.675,0,0,0-2.271-5.807,107.133,107.133,0,0,0,18.208-10.163,116.072,116.072,0,0,1,18.826-10.51Z" transform="translate(-350.058 -197.539)" fill="#e5918f"/>
          </g>
          <path id="Path_1027" data-name="Path 1027" d="M384.352,170.826l-9.59,38.3s.99,9.684,10.771,4.931,16.26-35.27,16.26-35.27Z" transform="translate(-305.675 -90.968)" fill="#ffbc96"/>
          <path id="Path_1028" data-name="Path 1028" d="M399.629,196.287c-1.186-.286-2.319-.6-3.41-.928q-1.676-.492-3.191-1.023a53.774,53.774,0,0,1-14.037-6.876c2.864-12.454,6.315-20.816,9.385-26.327a4.282,4.282,0,0,0,.231-.41l.246-.409a23.929,23.929,0,0,1,6.67-6.943c.273-.191.533-.368.805-.559l1.131,20,.191,2.06Z" transform="translate(-304.727 -95.005)" fill="#fff"/>
          <path id="Path_1029" data-name="Path 1029" d="M397.059,192.7c-1.186-.286-2.319-.6-3.41-.928q-1.676-.492-3.191-1.023c1.913-13.472,3.642-21.935,3.642-21.935l.982,2.469Z" transform="translate(-302.157 -91.419)" fill="#c7e5f2"/>
          <path id="Path_1030" data-name="Path 1030" d="M453.636,163.086c-.231,5.92-1.268,15.429-2.169,24.977-.286,3.029-.559,6.07-.791,9-.164,1.829-2.92,11.583-3.029,13.328-.491,8.349-4.584,14.6-.71,27.31a20.016,20.016,0,0,1,1.159,5.866c0,.873-1.131,1.787-1.582,2.033-1.623.941-4.816,1.6-8.69,2.074h-.013a225.43,225.43,0,0,1-24.119,1.1c-8.335,0-20.845-1.323-22.426-3.424-1.447-1.923-.11-4.72.573-8.581,3.069-17.419,1.978-26.5,1.787-39.083,0-.313-.015-.628-.015-.955-.313-19.4-1.6-36-.7-41.989.273-.191.533-.368.805-.559,1.322-.9,2.618-1.705,3.873-2.415.11-.054.246-.136.382-.218.382-.218.779-.422,1.147-.628a4.39,4.39,0,0,1,.436-.218,95.07,95.07,0,0,1,9.3-3.67c.3-.1.573-.191.805-.258,2.223-.137,4.638-.164,7.243-.1,2.265.067,5.73.367,9.5.859h.013a97.893,97.893,0,0,1,12.6,2.36.631.631,0,0,1,.067.027,25.939,25.939,0,0,1,9.918,6.943A33.489,33.489,0,0,1,453.636,163.086Z" transform="translate(-302.121 -96.386)" fill="#fff"/>
          <path id="Path_1031" data-name="Path 1031" d="M438.624,232.356a20.015,20.015,0,0,1,1.159,5.866c0,.873-1.131,1.787-1.582,2.033-1.623.941-4.816,1.6-8.69,2.074,1.6-.191,4.352-2.724,4.352-5.007,0-1.6-2.074-12.4-1.5-19.372s1.705-18.034-.45-26.9-4.2-20.53-4.2-20.53l12.154,7.339s1.569,2.2,3.288,4.856c-.286,3.028-.559,6.07-.791,9C442.2,193.546,434.75,219.642,438.624,232.356Z" transform="translate(-293.807 -91.036)" fill="#c7e5f2"/>
          <g id="Group_289" data-name="Group 289" transform="translate(85.635)">
            <path id="Path_1032" data-name="Path 1032" d="M392.944,118.195s1.052,12.713,5.267,13.567,3.18-4.548,3.18-4.548l-.59-6.036Z" transform="translate(-387.235 -102.764)" fill="#002c54"/>
            <path id="Path_1033" data-name="Path 1033" d="M409.838,161.663c-8.253-.983-5.171-9-4.038-10.846.3-.1,1.72-.531,1.829-.6a.042.042,0,0,1,.027-.013,2.276,2.276,0,0,0,.641-.955c.8-2.115.436-6.33.409-6.6v-.777c.136-.5.273-.983.382-1.432l4.338-3.41,9.181-7.216s-2.442,12.072-.477,19.684a2.858,2.858,0,0,0,1.214,1.829c0,.013.013,0,.013,0a2.193,2.193,0,0,0,.913.327C426.522,152.714,423.384,163.273,409.838,161.663Z" transform="translate(-384.692 -100.161)" fill="#ffbc96"/>
            <path id="Path_1034" data-name="Path 1034" d="M416.379,136.077s-.076,8.057-8.822,11.763c.813-2.1.439-6.321.413-6.592l3.664-2.877Z" transform="translate(-383.959 -98.756)" fill="#f2aa81"/>
            <path id="Path_1035" data-name="Path 1035" d="M394.591,121.983s1.907,26.376,9.029,28.618a18.524,18.524,0,0,0,15.589-7.909c1.877-2.524,4.249-3.092,5.024-6.141,1.257-4.952,3.033-14.087.769-19.592C421.777,109.119,394.9,102.893,394.591,121.983Z" transform="translate(-386.866 -104.743)" fill="#ffbc96"/>
            <path id="Path_1036" data-name="Path 1036" d="M426.526,113.452c-.118-4.791-4.968-6.581-4.968-6.581-4.827-2.26-14.861-1.285-25.2,1.022-2.425.541-5.468-.947-7.161.228-2.047,1.42-.009,7.908-.009,7.908,3.989,12.083,18.672,8.154,23.085,6.663,1.048,3.112.913,7.437,3.529,9.667,1.491,1.272,4.081,1.307,6.716.869.324.616,1.541,1.159,1.79,2.005.83,2.825.71,7.241.686,10.65l1.244-.608C426.395,144.351,439.272,113.847,426.526,113.452Z" transform="translate(-388.28 -105.589)" fill="#002c54"/>
            <g id="Group_286" data-name="Group 286" transform="translate(8.783 21.039)">
              <path id="Path_1037" data-name="Path 1037" d="M401.7,127.566c.373,2.19-.708,4.2-2.412,4.49s-3.39-1.25-3.762-3.44.706-4.2,2.411-4.491S401.33,125.375,401.7,127.566Z" transform="translate(-395.455 -122.482)" fill="none" stroke="#fff" stroke-miterlimit="10" stroke-width="0.501"/>
              <path id="Path_1038" data-name="Path 1038" d="M408.733,126.252c.372,2.19-.708,4.2-2.413,4.491s-3.388-1.25-3.762-3.441.708-4.2,2.413-4.491S408.36,124.062,408.733,126.252Z" transform="translate(-393.879 -122.777)" fill="none" stroke="#fff" stroke-miterlimit="10" stroke-width="0.501"/>
              <path id="Path_1039" data-name="Path 1039" d="M400.558,127.016s.377-.613,2.359-.441" transform="translate(-394.311 -121.932)" fill="none" stroke="#fff" stroke-miterlimit="10" stroke-width="0.501"/>
              <line id="Line_3" data-name="Line 3" y1="1.175" x2="7.357" transform="translate(14.927 2.826)" fill="none" stroke="#fff" stroke-miterlimit="10" stroke-width="0.501"/>
            </g>
            <g id="Group_287" data-name="Group 287" transform="translate(29.504 22.096)">
              <path id="Path_1040" data-name="Path 1040" d="M414.486,134.747c5.065,1.94,6.648-10.529,1.837-11.082-3.649-.419-3.8,4.671-3.8,4.671S411.592,133.639,414.486,134.747Z" transform="translate(-412.382 -123.64)" fill="#ffbc96"/>
            </g>
            <g id="Group_288" data-name="Group 288" transform="translate(31.562 24.001)" opacity="0.5">
              <path id="Path_1041" data-name="Path 1041" d="M415.779,125.2s-2.993,1.584-1.072,6.445" transform="translate(-414.064 -125.196)" fill="none" stroke="#cc6362" stroke-miterlimit="10" stroke-width="0.724"/>
              <path id="Path_1042" data-name="Path 1042" d="M416.561,127.13a2.646,2.646,0,0,0-2.461,1.826" transform="translate(-414.055 -124.763)" fill="none" stroke="#cc6362" stroke-miterlimit="10" stroke-width="0.724"/>
            </g>
          </g>
          <path id="Path_1043" data-name="Path 1043" d="M458.631,210.886v.012c-2.227,2.583-10.676,4.466-14.741.892-1.277-1.138-2.72-4.138-4.136-7.859a243.532,243.532,0,0,1-7.015-23.751l18.908-9.662s2.432,10.907,4.528,21.272c0,0,.018.105.056.289.683,3.32,1.317,6.586,1.817,9.388a1.433,1.433,0,0,1,.036.223A39.708,39.708,0,0,1,458.631,210.886Z" transform="translate(-292.681 -91.036)" fill="#ffbc96"/>
          <path id="Path_1044" data-name="Path 1044" d="M426.9,171.3c1.826,7.592,7.565,21.981,7.565,21.981,4.02.667,9.411-.073,13.878-1.678a25.571,25.571,0,0,0,8.838-5.741s-3.806-10.7-7.222-18.383c-3.065-6.9-4.908-9.475-6.234-10.842a30.029,30.029,0,0,0-7.508-5.583Z" transform="translate(-293.988 -95.399)" fill="#fff"/>
          <path id="Path_1045" data-name="Path 1045" d="M450.069,176.646l-11.1-4.788-8.743-22.527s1.6.487,3.713,1.339h.01c.04.02.132.05.284.111a1.237,1.237,0,0,1,.163.071c1.886.883,9.2,5.193,14.26,20.853l.121.4c.539,1.806.934,3.256,1.147,4.007.02.071.04.142.06.223C450.017,176.433,450.038,176.544,450.069,176.646Z" transform="translate(-293.243 -95.785)" fill="#fff"/>
          <g id="Group_290" data-name="Group 290" transform="translate(94.992 100.474)">
            <path id="Path_1046" data-name="Path 1046" d="M464.537,207.043v.012c-.163,1.384-.544,2.38-1.229,2.732-.108.07-1.661.994-1.769,1.064a94.492,94.492,0,0,1-11.721,6.061,424.682,424.682,0,0,1-40.926,14.706,48.136,48.136,0,0,0-2.5-5.713A107.2,107.2,0,0,0,424.154,215c8.819-6.731,21.5-14.909,21.5-14.909l3.2-3.768s11.388-10.481,13.217-8.373c0,0,.018.105.056.289.272,1.093,1.175,5.114,1.817,9.388a1.429,1.429,0,0,1,.036.223A39.708,39.708,0,0,1,464.537,207.043Z" transform="translate(-393.579 -187.667)" fill="#ffbc96"/>
            <path id="Path_1047" data-name="Path 1047" d="M410.041,218.666a7.044,7.044,0,0,1-4.5.864c-1.255-.263-1.76-.777-2.689-.94a20.8,20.8,0,0,1-4.622-1.069c-1.224-.6-1.7-.667-1.659.562s2.457,2.29,3.112,2.631a6.255,6.255,0,0,1,1.566,1.567c.088.137-4.024,2.289-5.13,1.853a3.2,3.2,0,0,0-.141,1.542c.187.552,1.032.747,1.1,1.025s-.195.845-.011,1.287.938.442,1.242,1.158-.031.728.192,1.475,1.178.883,1.359,1.267.085.836.485,1.1,4.1-.922,5.45-1.5,4.958-5.772,8.95-7.542Z" transform="translate(-395.924 -181.069)" fill="#ffbc96"/>
          </g>
          <path id="Path_1048" data-name="Path 1048" d="M428.164,237.833H399.4v-2.814h28.765a1.407,1.407,0,0,1,1.407,1.407h0A1.408,1.408,0,0,1,428.164,237.833Z" transform="translate(-300.153 -76.58)" fill="#375f84"/>
          <path id="Path_1049" data-name="Path 1049" d="M426.419,247.719H354.4a1.921,1.921,0,0,1-1.85-1.407l-14.74-53.063a1.843,1.843,0,0,1,1.775-2.337H409.23a3.611,3.611,0,0,1,3.48,2.647L427.4,246.431A1.015,1.015,0,0,1,426.419,247.719Z" transform="translate(-313.972 -86.466)" fill="#375f84"/>
          <path id="Path_1050" data-name="Path 1050" d="M424.291,247.719H352.271a1.919,1.919,0,0,1-1.85-1.407L335.681,193.25a1.844,1.844,0,0,1,1.776-2.337H407.1a3.613,3.613,0,0,1,3.48,2.647l14.687,52.872A1.016,1.016,0,0,1,424.291,247.719Z" transform="translate(-314.45 -86.466)" fill="#467cdb"/>
        </g>
      </g>
      <g id="Group_293" data-name="Group 293" transform="translate(636.558 767.698)">
        <path id="Path_1051" data-name="Path 1051" d="M174.878,213.418l8.342-8.553s.289-3.814.743-4.619,1.628-3.784,2.213-4.108a3.023,3.023,0,0,1,1.754,0,8.032,8.032,0,0,1,1.678-.389,4.932,4.932,0,0,1,1.491.474s1.247-.084,1.768-.084a1.106,1.106,0,0,1,.685.146,36.683,36.683,0,0,1,2.986-3.092c.974-.78,2.465-2.216,2.906-2.21.416,0,.6.737.3,1.517a8.668,8.668,0,0,1-1.623,2.037l-3.8,5.76a8.152,8.152,0,0,0,1-.476c.346-.217,2.664-2.382,2.8-2.469s1.18-.779,1.786-.086-3.98,6.187-4.717,6.922a40.163,40.163,0,0,1-4.952,2.871s-4.451,8.007-4.884,8.526S174.878,213.418,174.878,213.418Z" transform="translate(-35.608 -155.234)" fill="#ffbc96"/>
        <path id="Path_1052" data-name="Path 1052" d="M186.966,179.643s-4.659,26.995-9.046,27.621c0,0-17.51.706-21.411-20.536-3.383-18.423,10.186-22.351,16.533-20.942S188.33,168.112,186.966,179.643Z" transform="translate(-39.845 -160.939)" fill="#ffbc96"/>
        <path id="Path_1053" data-name="Path 1053" d="M171.823,198.781s-2.454,3.306-3.314,11.317a26.005,26.005,0,0,1-14.016-2.42,99.209,99.209,0,0,0,4.068-23.565" transform="translate(-40.177 -156.773)" fill="#ffbc96"/>
        <path id="Path_1054" data-name="Path 1054" d="M167.218,162.106c-9.57,2.114-8.805,8.076-8.805,8.076-4.479,1.109-5.442,2.959-5.406,11.228s3.03,18.2,4.68,19.007,11,.847,11.786.564,4.056-7.871,3.292-9.205.039-6.583,2.217-6.782,1.753,3.178,1.753,3.178l1.791-.393,1.382-3.391c12.645.753,15.913-13.658,15.913-13.658C192.782,168.749,176.787,159.992,167.218,162.106Z" transform="translate(-40.51 -161.779)" fill="#002c54"/>
        <path id="Path_1055" data-name="Path 1055" d="M78.83,311.353l9.674,1.4-3.2,11.3L74.82,321.406s-4.264-5.779,2.174-10.054A3.525,3.525,0,0,1,78.83,311.353Z" transform="translate(-58.345 -128.282)" fill="#ffbc96"/>
        <path id="Path_1056" data-name="Path 1056" d="M149.38,295.655l-14.261-43.18s-4.322-1.54-6.537,0c0,0-14.856,7.989-13.271,30.767,1.195,17.172,4.821,35.8,6.29,43.266L83.552,325.1a12.961,12.961,0,0,0-1.657,12.841S129.7,350.8,136.438,351.99c5.473.966,11.465,1.71,14.357-.769C155.891,346.856,149.38,295.655,149.38,295.655Z" transform="translate(-56.678 -141.604)" fill="#052635"/>
        <path id="Path_1057" data-name="Path 1057" d="M115.631,311.353l9.674,1.4-3.2,11.3-10.479-2.643s-4.264-5.779,2.174-10.054A3.525,3.525,0,0,1,115.631,311.353Z" transform="translate(-50.096 -128.282)" fill="#ffbc96"/>
        <path id="Path_1058" data-name="Path 1058" d="M114.881,317.807c-.215,2.224,1.73,4.227,1.373,4.781s-6.86,11.466-6.86,11.466,4.91,2.139,4.118,5.227H101.079a10.317,10.317,0,0,1-3.168-7.128,36.1,36.1,0,0,1,3.062-9.108c2.218-4.277,7.26-13.933,7.26-13.933a7.035,7.035,0,0,1,4.144.08,25.16,25.16,0,0,1,6.017,2.691S115.416,312.311,114.881,317.807Z" transform="translate(-52.859 -128.813)" fill="#467cdb"/>
        <path id="Path_1059" data-name="Path 1059" d="M210.264,342.025c-3.07-11.455-31.956-60.361-41.728-73.565-20.071-8.715-41.463-16.11-41.463-16.11-8.848,2.113-13.2,19.94-8.187,31.824,3.442,8.154,25.281,28.674,38.654,40.755l-37.112-.044s-4.371,6.534-.41,12.741c0,0,61.723,14.035,67.136,14.827s17.563,0,17.563,0S212.848,351.669,210.264,342.025Z" transform="translate(-48.633 -141.479)" fill="#002c54"/>
        <path id="Path_1060" data-name="Path 1060" d="M78.081,317.807c-.215,2.224,1.73,4.227,1.373,4.781s-6.86,11.466-6.86,11.466,4.91,2.139,4.118,5.227H64.277a10.323,10.323,0,0,1-3.168-7.128,36.129,36.129,0,0,1,3.063-9.108c2.218-4.277,7.259-13.933,7.259-13.933a7.04,7.04,0,0,1,4.145.08,25.16,25.16,0,0,1,6.017,2.691S78.616,312.311,78.081,317.807Z" transform="translate(-61.108 -128.813)" fill="#467cdb"/>
        <path id="Path_1061" data-name="Path 1061" d="M239.52,202.52l-19.906,35.014-14.255-14.21-11.8,17.564,3.426,1.645-1.233,1.026s27.511,13.4,30.808,10.443,18.657-47.5,18.657-47.5Z" transform="translate(-31.421 -152.648)" fill="#ffbc96"/>
        <path id="Path_1062" data-name="Path 1062" d="M225.15,226.72s-3.758,15.853-11.274,23.369l-19.231-7.32s-8.924,15.008-17.652,26.515c-3.354,4.444-4.468,10.7-8.41,11.519-.245-.086-.477-.159-.722-.22-10.687-3.207-26.454.2-39.466-4.64-14.371-5.349-11.58-8.361-11.58-8.361a185.643,185.643,0,0,0,13.661-32.342,198.288,198.288,0,0,0,4.75-19.5,22.453,22.453,0,0,1,18.9-18.08c.11-.012.208-.037.318-.049,10.895-1.383,39.417,1.983,44.962,4.358S225.15,226.72,225.15,226.72Z" transform="translate(-48.671 -153.82)" fill="#467cdb"/>
        <path id="Path_1063" data-name="Path 1063" d="M185.126,234.907s-8.924,15.008-17.652,26.515c-3.354,4.444-4.468,10.7-8.41,11.519,1.726-.612,4.59-9.7,5.607-11.739s2.656-4.076,6.182-11.213,8.283-17.626,8.283-17.626Z" transform="translate(-39.153 -145.959)" fill="#5996ef"/>
        <path id="Path_1064" data-name="Path 1064" d="M150.075,311.642a62.27,62.27,0,0,1,19.183,2.757" transform="translate(-41.167 -128.192)" fill="none" stroke="#000" stroke-miterlimit="10" stroke-width="1.065"/>
        <path id="Path_1065" data-name="Path 1065" d="M246.193,193.139a18.674,18.674,0,0,0-3.347,2.414l1.135-2.173a21.352,21.352,0,0,0,2.042-2.245c.54-.8.256-1.591-.171-1.634a16.714,16.714,0,0,0-3.135,2.241l.229-.437a21.39,21.39,0,0,0,2.041-2.245c.54-.8.256-1.591-.17-1.634s-3.879,2.856-3.879,2.856l-1.682,2.251,1.268-2.462a10.659,10.659,0,0,0,1.113-1.706c.444-.89.124-1.163-.124-1.459s-2.572,1.435-3.166,2.126a35.9,35.9,0,0,0-2.621,3.9l-1.943,4.019c-.124-1.164-.319-3.157-.457-4.426-.2-1.83-1.855-2.263-1.912-1.373s-.981,5.267-.771,7.642.606,3.931.755,5.266-1.238,4-1.238,4,5.54,3.44,6.456,2.41a43.264,43.264,0,0,0,3.807-4.856,25.861,25.861,0,0,0,2.168-4.9l1.731-3.7a21.382,21.382,0,0,0,2.041-2.245C246.9,193.978,246.619,193.181,246.193,193.139Z" transform="translate(-23.217 -156.155)" fill="#ffbc96"/>
      </g>
      <g id="Group_295" data-name="Group 295" transform="translate(1105.006 693.193)">
        <path id="Path_1066" data-name="Path 1066" d="M516.279,100.915H451.322a7.538,7.538,0,0,0-7.537,7.538V123.8a7.539,7.539,0,0,0,6.586,7.478,1.086,1.086,0,0,1,.951,1.078v8.4a.5.5,0,0,0,.906.29l6.616-9.252a1.1,1.1,0,0,1,.892-.459h56.543a7.538,7.538,0,0,0,7.538-7.537V108.453A7.538,7.538,0,0,0,516.279,100.915Z" transform="translate(-443.785 -100.915)" fill="none" stroke="#fff" stroke-miterlimit="10" stroke-width="0.896"/>
        <g id="Group_294" data-name="Group 294" transform="translate(12.539 12.707)">
          <path id="Path_1067" data-name="Path 1067" d="M458.992,113.776a2.482,2.482,0,1,1-2.483-2.481A2.482,2.482,0,0,1,458.992,113.776Z" transform="translate(-454.028 -111.295)" fill="none" stroke="#fff" stroke-miterlimit="10" stroke-width="0.896"/>
          <path id="Path_1068" data-name="Path 1068" d="M469.2,113.776a2.482,2.482,0,1,1-2.481-2.481A2.48,2.48,0,0,1,469.2,113.776Z" transform="translate(-451.74 -111.295)" fill="none" stroke="#fff" stroke-miterlimit="10" stroke-width="0.896"/>
          <path id="Path_1069" data-name="Path 1069" d="M479.411,113.776a2.482,2.482,0,1,1-2.483-2.481A2.482,2.482,0,0,1,479.411,113.776Z" transform="translate(-449.451 -111.295)" fill="none" stroke="#fff" stroke-miterlimit="10" stroke-width="0.896"/>
          <path id="Path_1070" data-name="Path 1070" d="M489.62,113.776a2.482,2.482,0,1,1-2.481-2.481A2.481,2.481,0,0,1,489.62,113.776Z" transform="translate(-447.163 -111.295)" fill="none" stroke="#fff" stroke-miterlimit="10" stroke-width="0.896"/>
          <path id="Path_1071" data-name="Path 1071" d="M499.83,113.776a2.482,2.482,0,1,1-2.483-2.481A2.482,2.482,0,0,1,499.83,113.776Z" transform="translate(-444.875 -111.295)" fill="none" stroke="#fff" stroke-miterlimit="10" stroke-width="0.896"/>
        </g>
      </g>
      <g id="Group_297" data-name="Group 297" transform="translate(656.683 760.467)">
        <path id="Path_1072" data-name="Path 1072" d="M85.085,155.872h64.957a7.538,7.538,0,0,1,7.538,7.537v15.346a7.539,7.539,0,0,1-6.587,7.478,1.088,1.088,0,0,0-.951,1.08v8.4a.5.5,0,0,1-.9.29l-6.618-9.252a1.1,1.1,0,0,0-.891-.458H85.085a7.538,7.538,0,0,1-7.537-7.538V163.409A7.538,7.538,0,0,1,85.085,155.872Z" transform="translate(-77.548 -155.872)" fill="none" stroke="#fff" stroke-miterlimit="10" stroke-width="0.896"/>
        <g id="Group_296" data-name="Group 296" transform="translate(12.539 12.705)">
          <path id="Path_1073" data-name="Path 1073" d="M128.629,168.734a2.482,2.482,0,1,0,2.481-2.483A2.481,2.481,0,0,0,128.629,168.734Z" transform="translate(-78.638 -166.251)" fill="none" stroke="#fff" stroke-miterlimit="10" stroke-width="0.896"/>
          <path id="Path_1074" data-name="Path 1074" d="M118.419,168.734a2.482,2.482,0,1,0,2.483-2.483A2.482,2.482,0,0,0,118.419,168.734Z" transform="translate(-80.926 -166.251)" fill="none" stroke="#fff" stroke-miterlimit="10" stroke-width="0.896"/>
          <path id="Path_1075" data-name="Path 1075" d="M108.21,168.734a2.482,2.482,0,1,0,2.481-2.483A2.482,2.482,0,0,0,108.21,168.734Z" transform="translate(-83.214 -166.251)" fill="none" stroke="#fff" stroke-miterlimit="10" stroke-width="0.896"/>
          <path id="Path_1076" data-name="Path 1076" d="M98,168.734a2.482,2.482,0,1,0,2.483-2.483A2.482,2.482,0,0,0,98,168.734Z" transform="translate(-85.503 -166.251)" fill="none" stroke="#fff" stroke-miterlimit="10" stroke-width="0.896"/>
          <path id="Path_1077" data-name="Path 1077" d="M87.791,168.734a2.482,2.482,0,1,0,2.481-2.483A2.482,2.482,0,0,0,87.791,168.734Z" transform="translate(-87.791 -166.251)" fill="none" stroke="#fff" stroke-miterlimit="10" stroke-width="0.896"/>
        </g>
      </g>
      <g id="Group_299" data-name="Group 299" transform="translate(926.299 634.145)">
        <path id="Path_1078" data-name="Path 1078" d="M428.014,76.324H309.621A11.823,11.823,0,0,1,297.8,64.5h0a11.823,11.823,0,0,1,11.823-11.823H428.014A11.823,11.823,0,0,1,439.837,64.5h0A11.823,11.823,0,0,1,428.014,76.324Z" transform="translate(-297.798 -52.679)" fill="#fff" stroke="#495ad6" stroke-miterlimit="10" stroke-width="0.896"/>
        <g id="Group_298" data-name="Group 298" transform="translate(115.907 4.721)">
          <path id="Path_1079" data-name="Path 1079" d="M405.057,62.823a6.287,6.287,0,1,1-6.287-6.287A6.287,6.287,0,0,1,405.057,62.823Z" transform="translate(-392.483 -56.536)" fill="none" stroke="#495ad6" stroke-miterlimit="10" stroke-width="1.672"/>
          <line id="Line_4" data-name="Line 4" x2="3.472" y2="3.472" transform="translate(10.733 10.732)" fill="none" stroke="#495ad6" stroke-linecap="round" stroke-miterlimit="10" stroke-width="1.672"/>
        </g>
      </g>
      <g id="Group_322" data-name="Group 322" transform="translate(576.392 527)">
        <g id="Group_300" data-name="Group 300" transform="translate(252.691 403.684)">
          <rect id="Rectangle_243" data-name="Rectangle 243" width="48.656" height="48.656" rx="7.708" transform="translate(8.867)" fill="#193091"/>
          <rect id="Rectangle_244" data-name="Rectangle 244" width="48.656" height="48.656" rx="7.708" fill="#495ad6"/>
          <path id="Path_1080" data-name="Path 1080" d="M233.917,307.326l13.966,8.063a1.294,1.294,0,0,1,0,2.24l-13.966,8.063a1.293,1.293,0,0,1-1.94-1.12V308.446A1.294,1.294,0,0,1,233.917,307.326Z" transform="translate(-215.335 -292.182)" fill="#fff"/>
        </g>
        <g id="Group_301" data-name="Group 301" transform="translate(546.012 388.735)">
          <rect id="Rectangle_245" data-name="Rectangle 245" width="63.605" height="63.605" rx="10.076" transform="translate(11.592)" fill="#193091"/>
          <rect id="Rectangle_246" data-name="Rectangle 246" width="63.605" height="63.605" rx="10.076" fill="#495ad6"/>
          <path id="Path_1081" data-name="Path 1081" d="M493.017,296.858a7.642,7.642,0,1,1-7.641-7.642A7.642,7.642,0,0,1,493.017,296.858Z" transform="translate(-453.573 -281.253)" fill="#fff"/>
          <path id="Path_1082" data-name="Path 1082" d="M502.825,319.513v11.28a1.846,1.846,0,0,1-1.846,1.846H472.808a1.846,1.846,0,0,1-1.845-1.846v-11.28a15.93,15.93,0,0,1,15.931-15.931h0A15.931,15.931,0,0,1,502.825,319.513Z" transform="translate(-455.091 -278.033)" fill="#fff"/>
        </g>
        <g id="Group_302" data-name="Group 302" transform="translate(408.687 140.652)">
          <path id="Path_1083" data-name="Path 1083" d="M372.7,83.81H347.7a1.88,1.88,0,0,1-1.879-1.88h0a1.879,1.879,0,0,1,1.879-1.879H372.7a1.879,1.879,0,0,1,1.879,1.879h0A1.88,1.88,0,0,1,372.7,83.81Z" transform="translate(-345.816 -80.051)" fill="#f0f4ff"/>
          <path id="Path_1084" data-name="Path 1084" d="M391.875,83.81h-18.1a1.88,1.88,0,0,1-1.879-1.88h0a1.879,1.879,0,0,1,1.879-1.879h18.1a1.88,1.88,0,0,1,1.879,1.879h0A1.881,1.881,0,0,1,391.875,83.81Z" transform="translate(-339.97 -80.051)" fill="#f0f4ff"/>
          <path id="Path_1085" data-name="Path 1085" d="M358.319,90.56H347.7a1.88,1.88,0,0,1-1.879-1.88h0A1.879,1.879,0,0,1,347.7,86.8h10.624A1.879,1.879,0,0,1,360.2,88.68h0A1.88,1.88,0,0,1,358.319,90.56Z" transform="translate(-345.816 -78.538)" fill="#f0f4ff"/>
          <path id="Path_1086" data-name="Path 1086" d="M394.62,90.56H361.527a1.88,1.88,0,0,1-1.879-1.88h0a1.879,1.879,0,0,1,1.879-1.879H394.62A1.88,1.88,0,0,1,396.5,88.68h0A1.881,1.881,0,0,1,394.62,90.56Z" transform="translate(-342.716 -78.538)" fill="#f0f4ff"/>
          <path id="Path_1087" data-name="Path 1087" d="M380.658,97.31H347.7a1.88,1.88,0,0,1-1.879-1.88h0a1.879,1.879,0,0,1,1.879-1.879h32.963a1.879,1.879,0,0,1,1.879,1.879h0A1.88,1.88,0,0,1,380.658,97.31Z" transform="translate(-345.816 -77.025)" fill="#f0f4ff"/>
          <path id="Path_1088" data-name="Path 1088" d="M390.506,97.31H379.881A1.88,1.88,0,0,1,378,95.43h0a1.879,1.879,0,0,1,1.879-1.879h10.625a1.88,1.88,0,0,1,1.879,1.879h0A1.881,1.881,0,0,1,390.506,97.31Z" transform="translate(-338.602 -77.025)" fill="#f0f4ff"/>
        </g>
        <g id="Group_306" data-name="Group 306" transform="translate(26.927 282.917)">
          <rect id="Rectangle_247" data-name="Rectangle 247" width="96.66" height="53.429" rx="3.823" fill="#193091"/>
          <line id="Line_5" data-name="Line 5" x2="88.444" transform="translate(4.108 7.218)" fill="none" stroke="#fff" stroke-linecap="round" stroke-miterlimit="10" stroke-width="0.896"/>
          <circle id="Ellipse_29" data-name="Ellipse 29" cx="1.071" cy="1.071" r="1.071" transform="translate(89.146 2.474)" fill="#fff"/>
          <circle id="Ellipse_30" data-name="Ellipse 30" cx="1.071" cy="1.071" r="1.071" transform="translate(83.561 2.474)" fill="#fff"/>
          <circle id="Ellipse_31" data-name="Ellipse 31" cx="1.071" cy="1.071" r="1.071" transform="translate(77.976 2.474)" fill="#fff"/>
          <g id="Group_305" data-name="Group 305" transform="translate(4.108 11.452)">
            <g id="Group_303" data-name="Group 303">
              <path id="Path_1089" data-name="Path 1089" d="M53.8,208.581H38.79a1.479,1.479,0,0,1-1.479-1.479h0a1.479,1.479,0,0,1,1.479-1.479H53.8a1.479,1.479,0,0,1,1.479,1.479h0A1.479,1.479,0,0,1,53.8,208.581Z" transform="translate(-37.311 -205.623)" fill="#6589d1"/>
              <path id="Path_1090" data-name="Path 1090" d="M53.8,214.165H38.79a1.479,1.479,0,0,1-1.479-1.48h0a1.479,1.479,0,0,1,1.479-1.479H53.8a1.479,1.479,0,0,1,1.479,1.479h0A1.479,1.479,0,0,1,53.8,214.165Z" transform="translate(-37.311 -204.372)" fill="#6589d1"/>
              <path id="Path_1091" data-name="Path 1091" d="M53.8,219.748H38.79a1.479,1.479,0,0,1-1.479-1.479h0a1.479,1.479,0,0,1,1.479-1.48H53.8a1.479,1.479,0,0,1,1.479,1.48h0A1.479,1.479,0,0,1,53.8,219.748Z" transform="translate(-37.311 -203.12)" fill="#6589d1"/>
              <path id="Path_1092" data-name="Path 1092" d="M53.8,225.331H38.79a1.479,1.479,0,0,1-1.479-1.479h0a1.479,1.479,0,0,1,1.479-1.479H53.8a1.479,1.479,0,0,1,1.479,1.479h0A1.479,1.479,0,0,1,53.8,225.331Z" transform="translate(-37.311 -201.869)" fill="#6589d1"/>
              <path id="Path_1093" data-name="Path 1093" d="M53.8,230.915H38.79a1.479,1.479,0,0,1-1.479-1.48h0a1.479,1.479,0,0,1,1.479-1.479H53.8a1.479,1.479,0,0,1,1.479,1.479h0A1.479,1.479,0,0,1,53.8,230.915Z" transform="translate(-37.311 -200.617)" fill="#6589d1"/>
              <path id="Path_1094" data-name="Path 1094" d="M53.8,236.5H38.79a1.479,1.479,0,0,1-1.479-1.479h0a1.479,1.479,0,0,1,1.479-1.48H53.8a1.479,1.479,0,0,1,1.479,1.48h0A1.479,1.479,0,0,1,53.8,236.5Z" transform="translate(-37.311 -199.366)" fill="#6589d1"/>
            </g>
            <g id="Group_304" data-name="Group 304" transform="translate(20.81)">
              <path id="Path_1095" data-name="Path 1095" d="M120.466,208.581H55.79a1.479,1.479,0,0,1-1.479-1.479h0a1.479,1.479,0,0,1,1.479-1.479h64.676a1.479,1.479,0,0,1,1.479,1.479h0A1.479,1.479,0,0,1,120.466,208.581Z" transform="translate(-54.311 -205.623)" fill="#3b5fb7"/>
              <path id="Path_1096" data-name="Path 1096" d="M120.466,214.165H55.79a1.479,1.479,0,0,1-1.479-1.48h0a1.479,1.479,0,0,1,1.479-1.479h64.676a1.479,1.479,0,0,1,1.479,1.479h0A1.479,1.479,0,0,1,120.466,214.165Z" transform="translate(-54.311 -204.372)" fill="#3b5fb7"/>
              <path id="Path_1097" data-name="Path 1097" d="M120.466,219.748H55.79a1.479,1.479,0,0,1-1.479-1.479h0a1.479,1.479,0,0,1,1.479-1.48h64.676a1.479,1.479,0,0,1,1.479,1.48h0A1.479,1.479,0,0,1,120.466,219.748Z" transform="translate(-54.311 -203.12)" fill="#3b5fb7"/>
              <path id="Path_1098" data-name="Path 1098" d="M120.466,225.331H55.79a1.479,1.479,0,0,1-1.479-1.479h0a1.479,1.479,0,0,1,1.479-1.479h64.676a1.479,1.479,0,0,1,1.479,1.479h0A1.479,1.479,0,0,1,120.466,225.331Z" transform="translate(-54.311 -201.869)" fill="#3b5fb7"/>
              <path id="Path_1099" data-name="Path 1099" d="M120.466,230.915H55.79a1.479,1.479,0,0,1-1.479-1.48h0a1.479,1.479,0,0,1,1.479-1.479h64.676a1.479,1.479,0,0,1,1.479,1.479h0A1.479,1.479,0,0,1,120.466,230.915Z" transform="translate(-54.311 -200.617)" fill="#3b5fb7"/>
              <path id="Path_1100" data-name="Path 1100" d="M120.466,236.5H55.79a1.479,1.479,0,0,1-1.479-1.479h0a1.479,1.479,0,0,1,1.479-1.48h64.676a1.479,1.479,0,0,1,1.479,1.48h0A1.479,1.479,0,0,1,120.466,236.5Z" transform="translate(-54.311 -199.366)" fill="#3b5fb7"/>
            </g>
          </g>
        </g>
        <g id="Group_310" data-name="Group 310" transform="translate(485.415 0)">
          <circle id="Ellipse_32" data-name="Ellipse 32" cx="39.791" cy="39.791" r="39.791" transform="matrix(0.233, -0.972, 0.972, 0.233, 0, 77.392)" fill="none" stroke="#dee3fc" stroke-miterlimit="10" stroke-width="0.79"/>
          <circle id="Ellipse_33" data-name="Ellipse 33" cx="34.594" cy="34.594" r="34.594" transform="translate(2.334 30.329) rotate(-23.868)" fill="#3945ba"/>
          <path id="Path_1101" data-name="Path 1101" d="M451.405,4.913a3.149,3.149,0,1,1-3.15-3.15A3.15,3.15,0,0,1,451.405,4.913Z" transform="translate(-400.289 43.054)" fill="#fff"/>
          <path id="Path_1102" data-name="Path 1102" d="M449.53,7.528h0a.985.985,0,0,1-1.339-.383L438.017-11.206a.985.985,0,0,1,.384-1.339h0a.984.984,0,0,1,1.338.383L449.914,6.189A.985.985,0,0,1,449.53,7.528Z" transform="translate(-401.906 39.82)" fill="#fff"/>
          <path id="Path_1103" data-name="Path 1103" d="M448.141,4.8h0a.986.986,0,0,1,1.393,0l8.8,8.8a.984.984,0,0,1,0,1.392h0a.983.983,0,0,1-1.393,0l-8.8-8.8A.986.986,0,0,1,448.141,4.8Z" transform="translate(-399.674 43.67)" fill="#fff"/>
          <g id="Group_307" data-name="Group 307" transform="translate(16.299 16.299)">
            <line id="Line_6" data-name="Line 6" y1="3.978" transform="translate(31.88)" fill="none" stroke="#fff" stroke-linecap="round" stroke-miterlimit="10" stroke-width="2"/>
            <line id="Line_7" data-name="Line 7" x2="3.978" transform="translate(59.357 31.88)" fill="none" stroke="#fff" stroke-linecap="round" stroke-miterlimit="10" stroke-width="2"/>
            <line id="Line_8" data-name="Line 8" y2="3.978" transform="translate(31.456 59.357)" fill="none" stroke="#fff" stroke-linecap="round" stroke-miterlimit="10" stroke-width="2"/>
            <line id="Line_9" data-name="Line 9" x1="3.978" transform="translate(0 31.456)" fill="none" stroke="#fff" stroke-linecap="round" stroke-miterlimit="10" stroke-width="2"/>
          </g>
          <g id="Group_308" data-name="Group 308" transform="translate(20.436 20.435)" opacity="0.5">
            <line id="Line_10" data-name="Line 10" x1="1.989" y1="3.445" transform="translate(11.881)" fill="none" stroke="#dee3fc" stroke-linecap="round" stroke-miterlimit="10" stroke-width="1"/>
            <line id="Line_11" data-name="Line 11" y1="1.989" x2="3.445" transform="translate(51.617 11.881)" fill="none" stroke="#dee3fc" stroke-linecap="round" stroke-miterlimit="10" stroke-width="1"/>
            <line id="Line_12" data-name="Line 12" x2="1.989" y2="3.445" transform="translate(41.192 51.617)" fill="none" stroke="#dee3fc" stroke-linecap="round" stroke-miterlimit="10" stroke-width="1"/>
            <line id="Line_13" data-name="Line 13" x1="3.445" y2="1.989" transform="translate(0 41.192)" fill="none" stroke="#dee3fc" stroke-linecap="round" stroke-miterlimit="10" stroke-width="1"/>
          </g>
          <g id="Group_309" data-name="Group 309" transform="translate(20.647 20.647)" opacity="0.5">
            <line id="Line_14" data-name="Line 14" x1="3.445" y1="1.989" transform="translate(0 11.302)" fill="none" stroke="#dee3fc" stroke-linecap="round" stroke-miterlimit="10" stroke-width="1"/>
            <line id="Line_15" data-name="Line 15" y1="3.445" x2="1.989" transform="translate(41.348)" fill="none" stroke="#dee3fc" stroke-linecap="round" stroke-miterlimit="10" stroke-width="1"/>
            <line id="Line_16" data-name="Line 16" x2="3.445" y2="1.989" transform="translate(51.193 41.347)" fill="none" stroke="#dee3fc" stroke-linecap="round" stroke-miterlimit="10" stroke-width="1"/>
            <line id="Line_17" data-name="Line 17" x1="1.989" y2="3.445" transform="translate(11.302 51.193)" fill="none" stroke="#dee3fc" stroke-linecap="round" stroke-miterlimit="10" stroke-width="1"/>
          </g>
        </g>
        <g id="Group_313" data-name="Group 313" transform="translate(0 175.276)">
          <rect id="Rectangle_248" data-name="Rectangle 248" width="67.123" height="67.123" rx="9.569" transform="translate(5.203 5.815)" fill="#193091"/>
          <rect id="Rectangle_249" data-name="Rectangle 249" width="67.123" height="67.123" rx="7.667" transform="translate(0 0)" fill="#7e89fd" stroke="#dee3fc" stroke-miterlimit="10" stroke-width="1"/>
          <g id="Group_312" data-name="Group 312" transform="translate(18.657 10.586)">
            <g id="Group_311" data-name="Group 311">
              <path id="Path_1104" data-name="Path 1104" d="M53.727,132.274h-.351v-3.845a11.444,11.444,0,1,0-22.888,0v3.845h-.077a3.211,3.211,0,0,0-3.212,3.211v14.49a3.212,3.212,0,0,0,3.212,3.212H53.727a3.211,3.211,0,0,0,3.211-3.212v-14.49A3.21,3.21,0,0,0,53.727,132.274Zm-20.341-3.845a8.546,8.546,0,1,1,17.093,0v3.845H33.386Z" transform="translate(-27.199 -116.983)" fill="#dee3fc"/>
              <path id="Path_1105" data-name="Path 1105" d="M43.792,136.242a3.735,3.735,0,1,0-5.616,3.219.67.67,0,0,1,.338.749l-.649,2.4a2.243,2.243,0,1,0,4.33,0l-.643-2.374a.672.672,0,0,1,.348-.755A3.72,3.72,0,0,0,43.792,136.242Z" transform="translate(-25.154 -113.503)" fill="#7e89fd"/>
            </g>
            <path id="Path_1106" data-name="Path 1106" d="M55.561,151.213H28.576a1.377,1.377,0,0,1-1.377-1.377h0a1.378,1.378,0,0,1,1.377-1.377H55.561a1.377,1.377,0,0,1,1.377,1.377h0A1.376,1.376,0,0,1,55.561,151.213Z" transform="translate(-27.199 -109.928)" fill="#dee3fc"/>
            <path id="Path_1107" data-name="Path 1107" d="M55.561,155.026H28.576a1.378,1.378,0,0,1-1.377-1.377h0a1.377,1.377,0,0,1,1.377-1.377H55.561a1.376,1.376,0,0,1,1.377,1.377h0A1.377,1.377,0,0,1,55.561,155.026Z" transform="translate(-27.199 -109.074)" fill="#dee3fc"/>
          </g>
        </g>
        <g id="Group_320" data-name="Group 320" transform="translate(553.651 284.175)">
          <g id="Group_314" data-name="Group 314">
            <path id="Rectangle_250" data-name="Rectangle 250" d="M5.634,0H33.883a5.634,5.634,0,0,1,5.634,5.634v28.25a5.633,5.633,0,0,1-5.633,5.633H5.634A5.634,5.634,0,0,1,0,33.883V5.634A5.634,5.634,0,0,1,5.634,0Z" transform="translate(3.063 3.423)" fill="#193091"/>
            <rect id="Rectangle_251" data-name="Rectangle 251" width="39.517" height="39.517" rx="4.513" fill="#7e89fd" stroke="#dee3fc" stroke-miterlimit="10" stroke-width="1"/>
          </g>
          <g id="Group_562-2" data-name="Group 562" transform="translate(5.473 12.805)">
            <path id="Path_1999-2" data-name="Path 1999" d="M2196.947-2384.035v-2.289l8.028-3.516v2.339l-5.606,2.306,5.606,2.305v2.372Z" transform="translate(-2196.947 2392.577)" fill="#fff"/>
            <path id="Path_2000-2" data-name="Path 2000" d="M2247.054-2402.81h2.139l-7.347,15.359h-2.14Z" transform="translate(-2230.685 2402.81)" fill="#fff"/>
            <path id="Path_2001-2" data-name="Path 2001" d="M2296.94-2386.324v2.289l-8.027,3.516v-2.338l5.606-2.305-5.606-2.306v-2.372Z" transform="translate(-2269.508 2392.577)" fill="#fff"/>
          </g>
        </g>
        <path id="Path_1117" data-name="Path 1117" d="M52.856,318.342a10.628,10.628,0,0,0-5.456,1.5,11.441,11.441,0,0,0-22.74,2.541A8.736,8.736,0,1,0,23.043,339.7H52.856a10.681,10.681,0,0,0,0-21.361Z" transform="translate(-11.432 112.071)" fill="#fff"/>
      </g>
    </g>
    <rect id="Rectangle_252" data-name="Rectangle 252" width="915" height="2" rx="1" transform="translate(503 1024)" fill="url(#linear-gradient)"/>
  </g>
</svg>
