<svg xmlns="http://www.w3.org/2000/svg" width="23" height="30" viewBox="0 0 23 30"><g id="location" transform="translate(586.386 -77.095)" style="isolation: isolate"><path id="Path_432" data-name="Path 432" d="M-576.013,77.095h2.153a10.2,10.2,0,0,0,1.151.19A11.4,11.4,0,0,1-563.6,90.713a19.742,19.742,0,0,1-2.276,5.953,41.907,41.907,0,0,1-8.2,10.067,2.784,2.784,0,0,1-.554.361h-.538a4.2,4.2,0,0,1-.665-.522,45.506,45.506,0,0,1-5.932-6.638,25.848,25.848,0,0,1-3.951-7.507,11.658,11.658,0,0,1-.288-6.739,11.251,11.251,0,0,1,9.176-8.432A2.511,2.511,0,0,0-576.013,77.095Zm1.125,17.492a6.313,6.313,0,0,0,6.381-6.239,6.308,6.308,0,0,0-6.344-6.245,6.314,6.314,0,0,0-6.4,6.223A6.312,6.312,0,0,0-574.887,94.587Z" transform="translate(0 0)" fill="#4859a8"/></g></svg>
