<svg xmlns="http://www.w3.org/2000/svg" width="30" height="30" viewBox="0 0 30 30">
  <path id="organization" d="M-1922.747-311.672c-.269-.057-.275-.18-.275-.4q.007-7.87,0-15.74a2.165,2.165,0,0,0-2.223-2.262c-1.611,0-3.223-.006-4.834,0v18.61h-.938v-18.79a.944.944,0,0,1-.009-.148c.011-2.326.007-4.652.006-6.978a2.169,2.169,0,0,0-3.09-2.106q-7.227,3.034-14.451,6.075a2.174,2.174,0,0,0-1.451,2.211q0,9.288,0,18.576c0,.293.125.683-.055.851-.156.145-.533.05-.812.045a1.1,1.1,0,0,0-.709.184,1.038,1.038,0,0,0-.387,1.124,1.006,1.006,0,0,0,1.012.733q6.965,0,13.931,0t13.962,0a1.018,1.018,0,0,0,1.043-.852A.994.994,0,0,0-1922.747-311.672Zm-15.328-3.1q-2.435,0-4.87,0a1,1,0,0,1-1.063-1.027,1,1,0,0,1,1.078-1.011q1.217,0,2.435,0,1.2,0,2.4,0a1,1,0,0,1,1.079,1.01A1,1,0,0,1-1938.075-314.776Zm0-4.078c-.812,0-1.623,0-2.435,0s-1.644,0-2.466,0a1,1,0,0,1-1.035-1.024.991.991,0,0,1,1.044-1.014q2.451,0,4.9,0a1,1,0,0,1,1.051,1.008A1,1,0,0,1-1938.072-318.855Zm.042-4.079c-.833,0-1.665,0-2.5,0-.811,0-1.623,0-2.434,0a1,1,0,0,1-1.046-1.013.99.99,0,0,1,1.032-1.025q2.467,0,4.933,0a1,1,0,0,1,1.031,1.028A.994.994,0,0,1-1938.03-322.934Zm.791-4.438a.994.994,0,0,1-.776.36h-.193l-.564,0c-.581,0-1.161,0-1.741,0-.822,0-1.644,0-2.466,0a1,1,0,0,1-1.03-1.03,1.093,1.093,0,0,1,.023-.221.983.983,0,0,1,.995-.787h1.12q1.184,0,2.368,0h1.476a.994.994,0,0,1,1.014,1.013A1.036,1.036,0,0,1-1937.24-327.372Zm12.81,8.222a.989.989,0,0,1-.707.3h-3a1.01,1.01,0,0,1-1-1.02,1.03,1.03,0,0,1,.292-.722.989.989,0,0,1,.708-.3h3a1.01,1.01,0,0,1,1,1.02A1.029,1.029,0,0,1-1924.43-319.15Zm0-4.08a.989.989,0,0,1-.707.3h-3a1.01,1.01,0,0,1-1-1.02,1.03,1.03,0,0,1,.292-.722.989.989,0,0,1,.708-.3h3a1.01,1.01,0,0,1,1,1.02A1.029,1.029,0,0,1-1924.43-323.23Z" transform="translate(1952.013 339.677)" fill="#4859a8"/>
</svg>
